<svg xmlns="http://www.w3.org/2000/svg" width="1408pt" height="736pt" viewBox="0 0 1408 736"><path fill="#e6dfd6" d="M0 0h18.1c-3.88 3.86-7.6 7.9-10.71 12.41C5.47 14.7 2.53 15.62 0 17.03zm493.07 476.96c8.42 1.7 16.66 4.28 24.55 7.66.61-.95 1.23-1.89 1.85-2.82 2.75 2.06 5.78 4.49 6.34 8.12 1.08 5.47.68 11.11.28 16.63-.9-3.7-2.26-7.35-4.78-10.27-.71 1.62-1.33 3.31-2.3 4.8-2.86.64-5.87.11-8.77.44.05-1.01.12-2.01.2-3.01 3.09-1.79 6.31-4.17 7.41-7.72.56-2.27-1.25-3.95-3.12-4.78-1.03 1.48-2.07 2.96-3.15 4.41-9.45-6.25-20.97-7.51-31.91-8.96 4.19-2.27 8.83-3.3 13.4-4.5m530.97 7.76c.97-1.48 1.36-3.23 1.78-4.91-1.04 4.22-.24 8.58 1.09 12.64-8.38-.12-16.74.32-25.11.38 5-.85 10.07-1.22 15.09-1.96 2.18-1.91 3.84-4.45 6.51-5.77z"/><g fill="#fdfdfd"><path d="M726.35 105.4c10.07-6.3 22.88-8.86 34.3-4.98 10.98 3.39 19.18 12.17 25.65 21.27 13.76 21.11 20.56 45.83 24.9 70.41.59 3.03.73 6.41 2.94 8.81 4.22 4.83 8.01 10.02 11.8 15.19 1.3 2.04 3.83 2.37 6 2.83 16.96 2.69 31.85 15.13 38.05 31.06 3.25 7.58 4.78 15.77 5.43 23.96.62 11.54.39 23.15-1.19 34.61-.63 5.53-2.02 10.95-2.21 16.52 3.77-1.23 7.37-2.99 11.3-3.74 5.07-1.28 10.5-.51 15.38-2.65 13.7-5.42 29.09-7.08 43.43-3.25 14.49 3.73 28.29 12.81 35.08 26.48 7.59 13.98 9.64 31.03 4.92 46.28-6.07 20.29-25.01 34.75-45.09 39.5-2.4.7-5.65 1.55-5.69 4.64 5.25.16 10.46-.69 15.7-.86 28-1.13 55.95 1.62 83.91 2.47 10.51.02 21.54 4.7 27.06 13.98 5.72 10.03 5.49 22.99.06 33.11-2.62 4.15 1.33 8.1 3.43 11.46 9.41 12.52 15.52 27.8 16.03 43.53.14 14.56-2.17 29.79-10.4 42.14-5.23 7.51-12.57 14.24-21.82 16.07-15.97 3.25-32.28 4.33-48.38 6.81-12.88 2.08-25.86 3.63-38.88 4.48-27.34.6-54.66-.75-81.98-1.12-7.04.04-14.04-.8-21.06-.83-9.04-.21-18.56-.35-26.72-4.76-5.04-2.41-8.7-6.74-12.33-10.83-9.45 6.32-19.77 11.45-30.84 14.23-21.04 4.92-42.61 7.14-64.15 8.13-18.6.11-38.08 1.82-55.61-5.67-3.86-1.96-8.27-1.04-12.4-1.15-15.12.36-30.34-.82-45.01-4.62-4.55-1.3-9.33-.66-13.94-.1-20.22 2.52-40.64 3.8-61 2.57-6.77-.55-13.4-2.1-20.1-3.02-3.14 1.22-5.82 3.37-8.95 4.62-20.7 8.62-44.16 11.04-65.96 5.33-13.19-3.04-25.88-9.15-35.62-18.65-2.69-3.23-7.25-2.55-10.93-3.5-12.04-2.73-23.17-8.96-32.33-17.17-11.01-9.93-17.07-24.43-18.45-39.02-1.1-14.41 3-29.63 12.88-40.43 5.13-5.79 11.66-10.28 18.83-13.14 3.34-.93 4.08-4.65 5.83-7.17 6.44-10.46 18.09-16.03 29.36-19.73 6.89-2.64 14.16-3.97 21.35-5.5 2.54-1.12.76-4.02-.33-5.6-4.68-6.08-8.98-12.74-10.56-20.37-2.22-11.65-.18-24.41 7.02-34.03 5.76-7.94 13.53-15.24 23.37-17.43 4.83-.63 10.08-.84 14.55 1.43 9.15 4.19 15.07 15 12.8 24.95-.66 3.46-2.54 6.55-3.2 10 1.29 2.71 3.23 5.03 4.82 7.57 6.17 9.21 8.33 20.74 6.16 31.59 12.7 2.49 25.68 4.08 37.82 8.83 1.57-2.77 1.63-6 2.26-9.04.91-5.14 2.5-10.11 3.96-15.1-17.41-17.67-33.86-36.7-45.82-58.55-8.84-15.04-15.94-31.25-19.9-48.27-2.95-12.42-3.32-25.77 1.18-37.88 5.08-15.71 18.68-27.84 34.17-32.9 3.54-1.33 7.41-1.05 10.99-2.16.86-1.91-.15-3.99-.43-5.92-4.95-20.67-7.72-42.6-2.24-63.46 2.88-11.34 9.33-22.59 20.06-28.08 11.54-6.19 25.47-4.97 37.78-2.03 9.78 2.92 19.59 5.95 28.94 10.09 2.81 1.09 5.46 3.26 8.58 3.17 1.79-1.13 3.3-2.64 4.99-3.91 4.48-3.59 10.45-5.17 14-9.93 5.3-6.73 13.61-10.52 22.09-10.97 10.34-.48 20.93 1.79 29.86 7.15 3.52 1.87 7.03 4.85 11.31 4.07 3.23-1.7 4.72-5.37 7.1-7.99 10.57-12.67 21.96-25.07 36.09-33.83m7.17 22.19c-9.01 6.93-16.81 15.28-24.15 23.91-5.34 6.12-10.49 12.45-14.78 19.36-7.22-.55-14.48-.78-21.7-.93-7.55-5.18-15.55-10.51-24.82-11.83-4.55-.72-10.09.18-12.76 4.34-1.92 2.76-1.22 6.35-.41 9.37-5.99-.57-12.41.05-17.48 3.56-2.97 2.03-4.44 5.5-4.93 8.96-2.34 1.48-4.65 3.03-6.86 4.69-14.23-7.74-29.09-14.57-44.79-18.76-7.06-1.88-14.5-3.95-21.81-2.31-6.71 1.8-10.37 8.69-11.79 15.02-3.94 17.16-1.34 34.95 1.9 52.01 1.63 7.44 2.97 15.01 5.68 22.16-1.88 5.88-3.56 11.82-4.93 17.83-6.62-2.68-13.53-5.49-20.82-4.84-12.16.64-22.61 10.29-25.54 21.89-2.79 11.03-.42 22.56 3.19 33.11 7.48 20.69 18.46 40.01 31.48 57.7 10.54 13.73 22.34 26.68 36.06 37.3-7.17 15.18-10.93 32.06-10.36 48.87-6.4 2-11.93 6.16-16.17 11.29-7.42-6.72-17.14-9.93-26.68-12.27-24.23-5.62-49.72-6.18-74.05-.83-9.47 2.03-19.23 4.66-26.91 10.87-4.85 4.4-6.74 11.17-6.71 17.56-10.29-.59-21.47 3.71-26.58 13.1-8.05 14.93-3.87 35.43 9.44 46 9.09 7.56 21.31 10.97 33.03 9.71 3.7 4.72 7.75 9.26 12.75 12.64 12.25 9.12 28.01 12.01 42.99 11.93 15.73-.41 32.34-4.66 44.03-15.73 9.39 4.24 19.78 5.43 29.95 6.08 21.73.62 43.55-.89 64.93-4.84 20.41 6.12 41.92 8.18 63.15 6.71 2.69-.37 4.8 1.79 7.22 2.63 9.29 4.37 19.77 3.59 29.74 4.27 24.12-.47 48.34-1.87 72.06-6.55 16.87-3.73 33.49-12.88 42.3-28.25 9.11.33 18.12-2.12 26.31-5.97-.69 4-1.1 8.12-2.49 11.97-1.99 1.94-5.08 2.69-6.47 5.29-2.6 4.51-2.36 11.24 2.13 14.5 4.6 3.5 10.74 2.03 16.1 2.55 15.66.96 31.36.86 47.03 1.53 19.98.02 39.99 1.04 59.97.11 13.05-1.54 26.04-3.59 39.09-5.15 13.63-1.74 27.31-3.17 40.82-5.74 5.28-1.44 8.39-6.53 10.46-11.23 5.36-13 5.79-28.13.62-41.25-2.58-6.11-6.39-12.46-12.72-15.2.14-2.89.84-6.03-.66-8.68-1.18-2.42-3.67-3.71-5.98-4.8-2.02-5.1-1.15-10.71.47-15.77 7.13-1.8 9.85-12.03 4.51-17.07-2.41-2.72-6.36-2.22-9.6-2.6-21.02-.55-41.98-2.17-63-2.63-19.38.55-38.75 1.47-58.12 2.27-.45-8.15-1.14-16.45.57-24.5 1.61-8.1 6.2-15.95 13.6-19.99 7.62-4.15 16.26-6.03 23.8-10.37 9-4.94 15.87-14.17 17.04-24.49 1.37-10.33-1.25-21.67-8.79-29.19-4.98-5.33-11.77-8.76-18.9-10.11-13.22-2.03-27.14 1.06-38.35 8.33-2.77-1.94-6.27-3.06-9.6-1.97-6.72 2.13-11.74 7.48-16.06 12.8-11.3 14.68-18.4 32.61-19.92 51.1-1.64 14.57 1.62 29.27-.74 43.81-2.05 12.23-6.7 24.73-16.14 33.2-.81-6.77-1.28-13.57-2.75-20.24 2.45-1.15 5.01-2.95 5.58-5.77.98-6.84-1.13-13.58-2.62-20.19-3.13-11.37-6.09-22.87-10.9-33.67 2.51-4.8 4.81-9.72 6.82-14.75 7.39-18.37 13.95-37.17 17.95-56.6 3.17-14.76 5.91-29.72 6.02-44.87.2-10.67-.2-21.83-4.95-31.6-4.09-8.38-12.42-14.42-21.62-15.8-3.77-.84-7.71.23-11.39-.08-6.49-10.55-13.9-20.6-22.56-29.49-.8-.89-1.8-1.78-1.81-3.08-3.1-22.34-8.17-44.71-17.91-65.16-4.34-8.11-9.42-17.08-18.36-20.69-7.55-2.79-15.46.81-21.35 5.51M452.19 388.4c-3.52.85-5.76 4.14-8.05 6.71-5.68 6.87-6.82 17.24-2.29 24.98 3.36 6.11 9.45 10.47 11.67 17.24 1.34 3.7.7 7.65.81 11.48.44.16 1.32.47 1.76.63 6.51-6.22 8.31-16.76 4.36-24.85-2.94-7.19-10.08-12.47-10.72-20.59-.48-4.85 2.52-8.95 3.86-13.39.45-1.07-.02-2.57-1.4-2.21"/><path d="M386.88 520.96c1.47-2.51 4.68-2.47 7.2-2.94.83 8.11 2.27 16.18 4.73 23.96-4.57-1.31-9.22-3.85-11.28-8.35-1.79-3.88-2.92-8.76-.65-12.67"/></g><g fill="#eba4a0"><path d="M728.66 97.65c8.83-4.51 19.18-6.37 28.93-4.19 12.87 2.55 23.64 11.39 31.14 21.85 13.83 18.68 20.79 41.36 25.92 63.75 1.05 4.59 1.51 9.28 2.29 13.92.76 5.56 5.81 8.89 8.74 13.28 2.18 2.48 3.47 6.38 7.09 7.05 12.5 2.81 24.92 8.66 33.13 18.78 7.32 9.21 11.87 20.45 14.03 31.97 2.79 17.04 1.48 34.42-.51 51.47 7.4-.77 14.92-1.45 21.99-3.94 18.77-6.02 40.13-5.13 57.61 4.37 11.32 5.91 19.93 16.15 25.52 27.47 6.38 15.49 7.63 33.45 2.25 49.41-5.49 13.47-15.24 25.44-28.13 32.42 6.43.58 12.89.18 19.33.41 17.55.91 35.1 1.63 52.65 2.67 10.24-.18 21 3.19 28 10.97 9.18 9.63 11.1 24.38 7.48 36.81-.83 2.69-2.31 5.17-2.88 7.95 2.08 4.51 5.7 8.17 8.04 12.58 14.88 24.43 16.26 56.84 2.37 82.01-5.47 10.03-14.8 18.13-26 20.93-7.14 1.68-14.43 2.62-21.68 3.69-22.27 3-44.51 6.32-66.91 8.13-16.01.74-32.04-.1-48.06-.19-15.71-.81-31.47-.47-47.17-1.51-12.24-.59-25.25.71-36.56-4.97-4.63-2.16-8.53-5.51-12.33-8.85-9.67 5.69-20.16 9.92-31 12.8-23.6 5.37-47.84 7.06-71.96 7.7-13.93.08-28.27.72-41.66-3.78-4.05-1.24-7.9-3.72-12.29-3.16-16.5.79-33.12-.38-49.19-4.33-5.52-1.67-11.31-.61-16.89.1-12.92 1.47-25.9 2.47-38.91 2.56-11.47.05-23.07.21-34.32-2.31-2.14-.33-4.49-1.5-6.5-.14-23.21 12.19-50.9 14.85-76.25 8.64-11.72-2.89-22.86-8.14-32.51-15.4-2.78-1.92-4.88-5.19-8.47-5.63-13.49-2.42-26.3-8.42-36.98-16.98-23.9-19.36-30.66-57.01-14.14-83.12 3.85-6.28 9.11-11.65 15.14-15.84 3.43-2.4 7.52-3.65 10.98-5.98 1.86-2.25 3.01-4.99 4.8-7.3 4.39-5.79 10.32-10.23 16.63-13.75 9.39-5.44 20.15-7.45 30.38-10.66-3.86-5.86-7.77-11.88-9.19-18.86-4.13-16.18.99-34.29 12.75-46.09 5.61-5.64 11.96-11.11 19.82-13.18 4.85-1.29 10.02-1.34 14.91-.31 5.26 1.12 9.58 4.47 14.09 7.19-5.81-12.85-12.29-25.49-16.05-39.15-4.71-15.34-5.73-32.17-.84-47.59 4.59-12.42 12.44-24.16 23.99-31.05 6.25-4.08 13.46-6.18 20.55-8.28-1.51-6.24-2.26-12.61-3.29-18.93-2.97-16.55-2.33-33.87 2.47-50.02 3.77-11.99 11.24-23.48 22.82-29.13 12.69-6.53 27.8-5.36 41.22-1.88 11.7 3.1 23.18 7.14 34.03 12.56 5.02-3.48 10.47-6.45 15.05-10.51 5.69-6.51 13.34-11.39 21.86-13.13 11.56-2.09 23.72-.37 34.22 4.93 3.94 1.51 7.39 4.49 11.64 5.03 4.12-3.56 6.68-8.67 10.4-12.68 10.49-11.89 22-23.52 36.41-30.58m-2.31 7.75c-14.13 8.76-25.52 21.16-36.09 33.83-2.38 2.62-3.87 6.29-7.1 7.99-4.28.78-7.79-2.2-11.31-4.07-8.93-5.36-19.52-7.63-29.86-7.15-8.48.45-16.79 4.24-22.09 10.97-3.55 4.76-9.52 6.34-14 9.93-1.69 1.27-3.2 2.78-4.99 3.91-3.12.09-5.77-2.08-8.58-3.17-9.35-4.14-19.16-7.17-28.94-10.09-12.31-2.94-26.24-4.16-37.78 2.03-10.73 5.49-17.18 16.74-20.06 28.08-5.48 20.86-2.71 42.79 2.24 63.46.28 1.93 1.29 4.01.43 5.92-3.58 1.11-7.45.83-10.99 2.16-15.49 5.06-29.09 17.19-34.17 32.9-4.5 12.11-4.13 25.46-1.18 37.88 3.96 17.02 11.06 33.23 19.9 48.27 11.96 21.85 28.41 40.88 45.82 58.55-1.46 4.99-3.05 9.96-3.96 15.1-.63 3.04-.69 6.27-2.26 9.04-12.14-4.75-25.12-6.34-37.82-8.83 2.17-10.85.01-22.38-6.16-31.59-1.59-2.54-3.53-4.86-4.82-7.57.66-3.45 2.54-6.54 3.2-10 2.27-9.95-3.65-20.76-12.8-24.95-4.47-2.27-9.72-2.06-14.55-1.43-9.84 2.19-17.61 9.49-23.37 17.43-7.2 9.62-9.24 22.38-7.02 34.03 1.58 7.63 5.88 14.29 10.56 20.37 1.09 1.58 2.87 4.48.33 5.6-7.19 1.53-14.46 2.86-21.35 5.5-11.27 3.7-22.92 9.27-29.36 19.73-1.75 2.52-2.49 6.24-5.83 7.17-7.17 2.86-13.7 7.35-18.83 13.14-9.88 10.8-13.98 26.02-12.88 40.43 1.38 14.59 7.44 29.09 18.45 39.02 9.16 8.21 20.29 14.44 32.33 17.17 3.68.95 8.24.27 10.93 3.5 9.74 9.5 22.43 15.61 35.62 18.65 21.8 5.71 45.26 3.29 65.96-5.33 3.13-1.25 5.81-3.4 8.95-4.62 6.7.92 13.33 2.47 20.1 3.02 20.36 1.23 40.78-.05 61-2.57 4.61-.56 9.39-1.2 13.94.1 14.67 3.8 29.89 4.98 45.01 4.62 4.13.11 8.54-.81 12.4 1.15 17.53 7.49 37.01 5.78 55.61 5.67 21.54-.99 43.11-3.21 64.15-8.13 11.07-2.78 21.39-7.91 30.84-14.23 3.63 4.09 7.29 8.42 12.33 10.83 8.16 4.41 17.68 4.55 26.72 4.76 7.02.03 14.02.87 21.06.83 27.32.37 54.64 1.72 81.98 1.12 13.02-.85 26-2.4 38.88-4.48 16.1-2.48 32.41-3.56 48.38-6.81 9.25-1.83 16.59-8.56 21.82-16.07 8.23-12.35 10.54-27.58 10.4-42.14-.51-15.73-6.62-31.01-16.03-43.53-2.1-3.36-6.05-7.31-3.43-11.46 5.43-10.12 5.66-23.08-.06-33.11-5.52-9.28-16.55-13.96-27.06-13.98-27.96-.85-55.91-3.6-83.91-2.47-5.24.17-10.45 1.02-15.7.86.04-3.09 3.29-3.94 5.69-4.64 20.08-4.75 39.02-19.21 45.09-39.5 4.72-15.25 2.67-32.3-4.92-46.28-6.79-13.67-20.59-22.75-35.08-26.48-14.34-3.83-29.73-2.17-43.43 3.25-4.88 2.14-10.31 1.37-15.38 2.65-3.93.75-7.53 2.51-11.3 3.74.19-5.57 1.58-10.99 2.21-16.52 1.58-11.46 1.81-23.07 1.19-34.61-.65-8.19-2.18-16.38-5.43-23.96-6.2-15.93-21.09-28.37-38.05-31.06-2.17-.46-4.7-.79-6-2.83-3.79-5.17-7.58-10.36-11.8-15.19-2.21-2.4-2.35-5.78-2.94-8.81-4.34-24.58-11.14-49.3-24.9-70.41-6.47-9.1-14.67-17.88-25.65-21.27-11.42-3.88-24.23-1.32-34.3 4.98M480.94 378.8c-.14 3.44.9 6.8.77 10.24-.12 4.5-1.53 8.83-2.93 13.06 1.37 2.33 2.89 4.57 4.33 6.87 5.08 8.45 7.16 18.39 6.73 28.19 9.18 1.62 18.25 3.73 27.13 6.57 1.52-4.89 2.69-9.88 3.79-14.87.43-1.26-.92-2.13-1.54-3.01-11.71-11.37-22.51-23.77-31.61-37.34-2.26-3.22-3.92-6.86-6.67-9.71"/><path d="M731.57 183.14c1.36-13 6.3-26.19 15.63-35.58 2.64.21 4.31 2.59 5.7 4.59 5.79 9.75 8.44 20.94 10.54 31.97.6 4.04 1.68 8.19.64 12.25-.36-.24-1.09-.72-1.45-.96-9.25-6.34-19.94-10.67-31.06-12.27m-187.25 14.8c.09-2.72 1.08-5.3 2.49-7.6l.89.53c10.08 5.85 19.31 13.55 25.67 23.42-3.67 2.97-7.81 5.45-10.8 9.19-3.55 4.34-6.82 8.91-9.93 13.58-.27.42-.81 1.25-1.07 1.67-2.55-2.75-3.11-6.61-4.21-10.05-2.36-10.04-3.78-20.42-3.04-30.74m278.63 59.99c2.19-1.27 4.27.41 5.54 2.14-1.36-.2-2.68-.38-4.02-.58-1.21 1.74-2.42 3.47-3.67 5.18l-.25.34c-.48-2.56-.51-5.96 2.4-7.08m-15.63 2.38c3.21-2.14 7 2.58 5.57 5.69-.74 3-5.42 3.61-7.05 1.07-1.52-2.1-.72-5.41 1.48-6.76m26.1 7.25c2.49-2.6 7.36-.15 6.47 3.46.23 3.83-6.13 5.5-7.72 1.99-1-1.78-.18-4.15 1.25-5.45m-16.09 4.04c7.45-2.45 14.22 5.9 11.95 12.89-.97 4.06-5.8 4.87-9.32 4.68-4.47-.47-10.13-2.14-11.29-7.11-.46-5.05 4.1-9.23 8.66-10.46m-82.95 14.99c5.81-1.57 12.6-2.09 17.97 1.13 3.43 2.05 4.21 7.16 1.5 10.13-5.39 6.09-14.04 8.39-21.94 7.73-3.65-.23-7.48-1.86-9.3-5.19-1.12-2.43-.43-5.45 1.29-7.44 2.67-3.21 6.57-5.1 10.48-6.36m-216.89 7.07c-1.64-2.51-.44-6.22 2.49-7.08 2.5-.52 4 1.81 5.2 3.56-.6 1.85-1.42 3.62-2.15 5.42-1.93-.15-4.52.17-5.54-1.9m130.1-3.81c2.93-.58 6.14-1.65 9.04-.37 1.96 1.47 1.32 4.39.06 6.1-1.71 2.92-5.03 5.67-8.61 4.47-2.87-.86-6.38-2.72-6.44-6.14.77-2.55 3.67-3.37 5.95-4.06m-150.2 10.58c3.64-.56 6.85 4.32 4.15 7.21-1.96 2.49-6.32 1.28-7.05-1.7-.88-2.28.44-5.06 2.9-5.51m11.36 3.37c1.45-2.15 3.98-3.06 6.18-4.2 1.49.46 3 .91 4.5 1.36-1.7 3.22-3.94 6.29-4.44 9.98-.59 2.91.8 5.68 1.79 8.34-2.79-.68-6.16-.5-8.21-2.84-3.23-3.51-2.44-9.03.18-12.64m158.75 10.02.98-.59c-.09 6.68-.11 14.89-5.88 19.41-4.58 3.02-9.85-.88-12.34-4.78 5.27-5.24 10.41-10.81 17.24-14.04m-89.97 5c4.38-.84 9.07-1.06 13.37.33 3.29 1.03 6.46 4.1 5.85 7.82-.01 2.82-2.25 4.87-4.3 6.48-5.75 4.18-13.48 5.3-20.29 3.52-3.9-1.02-7.67-4.59-6.65-8.95 1.64-5.2 7.06-7.96 12.02-9.2m406.52 161.54c13.18.13 26.36-.21 39.54 0 .12 1.45.28 2.9.45 4.36l-.64.38c-12.81-.97-25.68-.43-38.52-.4-.28-1.45-.57-2.9-.83-4.34m-288.83 58.88c3.82-1.58 6.94 3.39 4.46 6.38-1.58 2.58-5.48 2.32-7.01-.15-.96-2.35.06-5.37 2.55-6.23m-11.95 11.08c8.27-2.31 16.11 7.74 12.07 15.22-2.47 6.15-11.39 7.71-16.1 3.23-6.07-5.02-3.48-16.36 4.03-18.45"/></g><g fill="#1f1618"><path d="M733.52 127.59c5.89-4.7 13.8-8.3 21.35-5.51 8.94 3.61 14.02 12.58 18.36 20.69 9.74 20.45 14.81 42.82 17.91 65.16.01 1.3 1.01 2.19 1.81 3.08 8.66 8.89 16.07 18.94 22.56 29.49 3.68.31 7.62-.76 11.39.08 9.2 1.38 17.53 7.42 21.62 15.8 4.75 9.77 5.15 20.93 4.95 31.6-.11 15.15-2.85 30.11-6.02 44.87-4 19.43-10.56 38.23-17.95 56.6-2.01 5.03-4.31 9.95-6.82 14.75 4.81 10.8 7.77 22.3 10.9 33.67 1.49 6.61 3.6 13.35 2.62 20.19-.57 2.82-3.13 4.62-5.58 5.77 1.47 6.67 1.94 13.47 2.75 20.24 9.44-8.47 14.09-20.97 16.14-33.2 2.36-14.54-.9-29.24.74-43.81 1.52-18.49 8.62-36.42 19.92-51.1 4.32-5.32 9.34-10.67 16.06-12.8 3.33-1.09 6.83.03 9.6 1.97 11.21-7.27 25.13-10.36 38.35-8.33 7.13 1.35 13.92 4.78 18.9 10.11 7.54 7.52 10.16 18.86 8.79 29.19-1.17 10.32-8.04 19.55-17.04 24.49-7.54 4.34-16.18 6.22-23.8 10.37-7.4 4.04-11.99 11.89-13.6 19.99-1.71 8.05-1.02 16.35-.57 24.5 19.37-.8 38.74-1.72 58.12-2.27 21.02.46 41.98 2.08 63 2.63 3.24.38 7.19-.12 9.6 2.6 5.34 5.04 2.62 15.27-4.51 17.07-1.62 5.06-2.49 10.67-.47 15.77 2.31 1.09 4.8 2.38 5.98 4.8 1.5 2.65.8 5.79.66 8.68 6.33 2.74 10.14 9.09 12.72 15.2 5.17 13.12 4.74 28.25-.62 41.25-2.07 4.7-5.18 9.79-10.46 11.23-13.51 2.57-27.19 4-40.82 5.74-13.05 1.56-26.04 3.61-39.09 5.15-19.98.93-39.99-.09-59.97-.11-15.67-.67-31.37-.57-47.03-1.53-5.36-.52-11.5.95-16.1-2.55-4.49-3.26-4.73-9.99-2.13-14.5 1.39-2.6 4.48-3.35 6.47-5.29 1.39-3.85 1.8-7.97 2.49-11.97-8.19 3.85-17.2 6.3-26.31 5.97-8.81 15.37-25.43 24.52-42.3 28.25-23.72 4.68-47.94 6.08-72.06 6.55-9.97-.68-20.45.1-29.74-4.27-2.42-.84-4.53-3-7.22-2.63-21.23 1.47-42.74-.59-63.15-6.71-21.38 3.95-43.2 5.46-64.93 4.84-10.17-.65-20.56-1.84-29.95-6.08-11.69 11.07-28.3 15.32-44.03 15.73-14.98.08-30.74-2.81-42.99-11.93-5-3.38-9.05-7.92-12.75-12.64-11.72 1.26-23.94-2.15-33.03-9.71-13.31-10.57-17.49-31.07-9.44-46 5.11-9.39 16.29-13.69 26.58-13.1-.03-6.39 1.86-13.16 6.71-17.56 7.68-6.21 17.44-8.84 26.91-10.87 24.33-5.35 49.82-4.79 74.05.83 9.54 2.34 19.26 5.55 26.68 12.27 4.24-5.13 9.77-9.29 16.17-11.29-.57-16.81 3.19-33.69 10.36-48.87-13.72-10.62-25.52-23.57-36.06-37.3-13.02-17.69-24-37.01-31.48-57.7-3.61-10.55-5.98-22.08-3.19-33.11 2.93-11.6 13.38-21.25 25.54-21.89 7.29-.65 14.2 2.16 20.82 4.84 1.37-6.01 3.05-11.95 4.93-17.83-2.71-7.15-4.05-14.72-5.68-22.16-3.24-17.06-5.84-34.85-1.9-52.01 1.42-6.33 5.08-13.22 11.79-15.02 7.31-1.64 14.75.43 21.81 2.31 15.7 4.19 30.56 11.02 44.79 18.76 2.21-1.66 4.52-3.21 6.86-4.69.49-3.46 1.96-6.93 4.93-8.96 5.07-3.51 11.49-4.13 17.48-3.56-.81-3.02-1.51-6.61.41-9.37 2.67-4.16 8.21-5.06 12.76-4.34 9.27 1.32 17.27 6.65 24.82 11.83 7.22.15 14.48.38 21.7.93 4.29-6.91 9.44-13.24 14.78-19.36 7.34-8.63 15.14-16.98 24.15-23.91m4.81 4.72c-8.18 6.42-15.37 13.97-22.35 21.63-6.01 7.62-12.69 14.75-17.78 23.06-1.24 1.86-2.44 4.63-5.18 4.18-1.96.01-2.06-2.61-3.45-3.47-6.34-.96-12.88.2-19.16-1.18-2.81-1.39-4.92-3.82-7.61-5.39-6.56-3.81-14.03-6.89-21.77-5.92-1.76 4.63 3.37 7.69 4.3 11.8.21 2.26-2.24 3.99-4.27 2.91-6.29-2.78-13.81-1.91-19.76 1.32-2.32 1.06-2.28 4.42-.41 5.88 2.58 2.58 6.43 2.47 9.74 3.31 2.51.32 2.39 4.65.04 5.2-5.75 1.79-11.09-1.56-15.64-4.63-3.52 1.56-6.06 5.11-10.01 5.75-2.04-.51-3.43-2.4-5.28-3.35-12.98-7.27-26.93-12.65-41.15-16.96-5.1-1.33-10.32-2.49-15.62-2.39-1.83-.05-3.62.64-4.87 1.98-3.84 3.72-4.9 9.27-5.6 14.35-1.52 20.45 1.62 41.04 7.78 60.53.66 2.42 1.85 4.92 1.16 7.47-1.46 5.52-3.43 10.9-4.66 16.48-1.93 7.45-2.88 15.31-6.62 22.15-2.31 4.7-6.05 8.66-7.52 13.76-1.09 2.83 1.55 5.8 4.32 6.12 7.98 1.29 16.16.63 24.15 1.82 1.76.1 2.42 3.25.56 3.79-6.1.7-12.29.06-18.41.73-1.59 2.89-3.76 5.54-4.7 8.74.29 2.71 2.45 4.57 4.31 6.32 6.93-2.83 13.83-5.88 21.17-7.49q.75 1.485.93 3.12c-1 1.2-2.65 1.48-4.02 2.06-4.45 1.43-8.7 3.38-13 5.2 1.52 2.14 3.36 4.24 3.81 6.92.31 2.18.14 4.39.37 6.59 5.62 4.27 12.85 5.68 18.87 9.35 12.93 7.43 26.29 14.61 41 17.75 2.69.64 5.54.84 8.07 2.04 2.6 1.97.04 6.48-3 5.46-15.42-1.94-29.88-8.37-43.19-16.16-7.71-4.51-16.51-7.05-23.83-12.19-3.97-2.66-4.4-7.57-4.93-11.88-.11-2.33-2.68-3.11-4.18-4.43-2.84.8-6.13 4.32-8.95 2.44-2.42-2.71 1.7-4.56 3.46-5.97-1.71-2.82-3.92-5.66-3.91-9.11-.05-3.18 2.09-5.74 3.43-8.46-3.04-.81-5.45-2.86-8.19-4.26-.99-2.66-2.38-5.43-1.79-8.34.5-3.69 2.74-6.76 4.44-9.98l.65.2c1.22-1.74 2.24-3.6 2.95-5.6.73-1.8 1.55-3.57 2.15-5.42 1.33-2.31 2.49-5.33 1.6-7.91-9.37-7.96-25.7-6.86-33.07 3.38-2.48 4.03-3.56 8.78-4.28 13.4-1.62 15.5 5.71 29.92 12.04 43.56 5.27 9.61 9.92 19.64 16.55 28.42 9.05 12.1 18.13 24.34 29.62 34.28 3.32 2.64 6.1 6.08 10.01 7.9 2.27-5.29 4.7-10.64 8.19-15.25 1.68-2.35 5.92-.82 5.52 2.09-1.14 3.13-3.06 5.89-4.52 8.87-3.61 6.67-6.22 13.82-9.31 20.73-6.36 17.59-9.38 37.07-4.48 55.4.19 1.54 1.26 3.52-.13 4.81-1.36 1.7-4.41 1.34-5.11-.79-1.74-4.31-1.97-9.01-2.8-13.53-4.79 1.56-8.3 5.36-11.81 8.78-1.76 1.41-.96 3.79-.94 5.71.79 7.91-.09 15.85-.12 23.78 4 4.76 7.69 9.9 10.42 15.51 1.39 2.38-.66 5.84-3.52 5.16-3.67-3.19-4.77-8.42-8.52-11.58-1.16 7.69-2.46 15.4-4.86 22.81-2.85 7.95-7.09 15.31-11.79 22.31 15.03 5.54 31.4 4.79 47.15 4.62 11.04-.77 22.13-1.25 33.1-2.77-3.82-3.59-8.9-5.64-12.3-9.7-1.17-1.43-.52-3.47.7-4.63 1.89-1.05 3.9.42 5.31 1.62 13.77 12.81 33.42 15.31 51.32 17.29 8.02.11 16.03.95 24.05.66-6.54-10-8.75-22.4-7.07-34.14 1.59-9.95 8.14-19.21 17.5-23.2 5.9-2.47 12.46-2.36 18.64-1.17 5.27-15.94 16.49-30.17 31.67-37.69 11.03-5.29 24-6.65 35.83-3.55 3.79 1.01 2.12 7.3-1.67 6.31-9.42-1.71-19.42-1.75-28.36 2.06-14.94 6.2-25.99 19.82-31.53 34.75 5.56 3.39 11.03 7.31 14.59 12.89 2.18 3.51 4.39 7.42 4.13 11.71.01 2.49-4.31 3.94-5.32 1.38-1.95-4.02-3.45-8.33-6.33-11.82-7.29-9.94-22.68-13.47-33.07-6.42-8.7 6.37-11.43 18.26-9.74 28.47 1.26 6.24 3.33 12.52 7.23 17.64 4.85 5.95 12.93 7.91 20.27 8.41 14.99 1.59 30.07.48 45.05-.59 16-1.4 32.34-2.1 47.65-7.43 11.46-3.42 21.01-11.42 28.33-20.67 9.12-13 14.04-28.62 15.54-44.34 1.41-16.89.23-34.08-4.11-50.47-.03-1.54 1.44-3.37 3.11-2.72 1.48.74 2.84 1.71 4.24 2.61.04-3.02 0-6.05-.59-9.01-2.36-12.55-6.15-24.77-10.53-36.74-1.42 1.08-2.97 3.45-4.93 2.02-3.02-1.97-.33-5.6.65-8 9.41-17.15 15.83-35.7 21.76-54.28 6.46-23.78 11.42-48.26 10.83-73.02-.46-7.53-1.55-15.56-6.23-21.75-4.36-6.31-12.26-9.52-19.79-9.23-5.57-.13-10.69 2.6-15.12 5.72-4.58 3.62-7.45 8.88-10.19 13.92-6.56 12.68-11.09 26.25-16.44 39.44-7.4 20.7-16.34 40.88-27.01 60.1-1.41 2.88-6.3 1.03-5.78-2.01.64-2.93 2.38-5.45 3.74-8.07 11.96-22.48 20.45-46.56 29.59-70.25-2.3.46-4.54 1.16-6.82 1.67-1.9.73-3.82-2.42-1.8-3.48 3.21-1.92 7.05-2.25 10.6-3.25 2.27-5.75 4.92-11.33 7.47-16.96-6.42 1.8-12.44 4.75-18.16 8.13-1.62.82-3.17 2.02-5.03 2.13-1.66-.5-2.37-2.84-.8-3.9 3.98-2.98 8.73-4.67 13.11-6.96 3.95-1.69 8.36-4.75 12.66-2.27 4.37-7.47 10.19-14.32 18.16-18.08-4.54-8.44-11.23-15.42-17.01-22.98-2.33-3.37-6.6-5.64-7.15-10.01-2.44-12.67-4.07-25.56-8.1-37.86-2.09-6.76-3.72-13.72-6.93-20.08-2.89-5.65-5.54-11.47-9.24-16.65-2.61-3.53-6.26-6.68-10.72-7.38-4.34-.57-8.38 1.7-11.65 4.31m180.02 211.18c-6.39 1.25-12.92 2.89-18.34 6.67-1.95 1.21-3.72 2.93-6.07 3.28-1.88-.28-2.09-2.52-2.9-3.85-4.82-1.25-8.44 2.92-11.57 5.89-11.73 12.45-18.8 28.79-21.81 45.5-2.54 13.56-.5 27.37-.78 41.04-.56 11.24-2.22 22.87-7.96 32.74-3.44 6.85-8.31 13.43-15.37 16.84.23 18.89-2.7 38.33-11.49 55.24 7.89-1.02 15.59-3.53 22.72-7.04-.1-4.67-.84-9.3-1.52-13.91-2.33-.84-4.95-1.58-6.32-3.82-4.96-5.76-1.49-16.74 6.3-17.76 4.84-.44 9.72-.06 14.57-.42-6.3-5.69-8.94-14.68-7.63-22.96.84-5.64 1.75-11.68 5.5-16.22 2.44-3.46 6.2-5.92 10.37-6.72 11.38-2.2 23.05-1.11 34.5-2.6-1.33-12.28-.96-25.31 4.11-36.76 3.39-7.7 10.77-12.48 18.21-15.74 8.4-4.21 18.4-5.94 25.26-12.77 8.31-8.43 9.84-22.33 4.32-32.67-2.16-3.94-4.71-8-8.78-10.19-7.67-4.15-16.77-5.47-25.32-3.77m-11.32 118.29c-10.98.99-22.03.48-33.01 1.44-3.29.15-6.77.28-9.62 2.12-4.68 2.87-6.74 8.42-7.71 13.57-1.4 7.92.67 17.08 7.2 22.25 3.95 3.32 9.37 2.4 14.14 2.63 11.98.7 24 .67 36 .98 16.3.72 32.64 1.07 48.97 1 .46-2.09.01-4.13-.73-6.07-13.41-.36-26.82-.38-40.23-.52-15.66-.77-31.35-.67-47.02-.92-4.47.08-8.61-2.92-10.28-7-2.64-6.37-2.11-14.64 2.87-19.75 2.12-2.3 5.44-2.6 8.38-2.75 11.36-.23 22.73-.21 34.07-.97 17.46-.09 34.89-1.22 52.35-1.21.94-1.98 1.35-4.12 1.21-6.3-18.88.06-37.71 1.28-56.59 1.5m62.42-1.59c.08 2.37-.02 4.73-.22 7.09 21.07.08 42.12.38 63.15 1.28 1.68-1.6 1.13-3.94.91-5.97-7.08-.45-14.22.17-21.26-.88-6.35-.44-12.74-.01-19.06-.85-7.84-.41-15.69-.37-23.52-.67M444.6 470.97c-11.49 1.42-23.14 3.31-33.81 8-1.99 1.09-3.92 2.3-5.79 3.59-1.69 1.92-3.67 3.81-4.17 6.44-1.59 7.92-.81 16.02-.46 24.02 1.12 16.28 4.64 32.95 13.85 46.69 5.41 7.71 13.04 13.84 21.69 17.55 16.46 6.88 35.48 6.8 52.25.99 10.6-3.56 19.47-11.31 25.08-20.91 9.03-15.29 11.7-33.35 12.85-50.79.4-5.52.8-11.16-.28-16.63-.56-3.63-3.59-6.06-6.34-8.12-3.15-1.7-6.32-3.4-9.72-4.54-20.88-7.04-43.32-8.42-65.15-6.29m430.52 3.57c-3.46-.06-5.63 3.28-5.95 6.4-1.17 4.3.45 10.82 5.76 11.06 27.88.62 55.78 1.16 83.66 2.09-1.58-7.24-1.56-14.75.29-21.94-27.9 1.31-55.85 1.49-83.76 2.39m89.05 19.28c12.54-.1 25.1-.44 37.63-.99 8.37-.06 16.73-.5 25.11-.38-1.33-4.06-2.13-8.42-1.09-12.64.45-2 1.09-3.94 1.76-5.86-20.94-.21-41.85-1.02-62.77-1.61-2.03 6.94-2.26 14.44-.64 21.48m4.48 5.94c.1 1.98.15 3.96.16 5.94 8.36-.48 16.81.25 25.11-.86 9.01-.27 18.03-.2 27.05-.56 3.8-.5 7.64-.76 11.49-.5.23-.72.7-2.15.94-2.87l-.92-2.64c-21.31-.13-42.53 1.73-63.83 1.49M373.34 510.4c-4.52 6.19-4.36 14.43-3.13 21.66 1.2 7.17 5.44 13.51 11.01 18.07 6.97 5.48 15.94 8.28 24.77 8.29-1.7-3.39-3.38-6.79-5-10.2-5.19-.55-10.23-2.28-14.39-5.49-6.01-5.53-9.25-14.61-6.4-22.5 1.97-5.44 7.79-8.54 13.41-8.09-.15-3.31-.2-6.63-.1-9.94-7.46-.66-15.69 1.92-20.17 8.2m471.11 9c33.18 1.03 66.4 1.53 99.6 2.1 5.7-.35 9.31 4.83 11.02 9.6 3.36 9.05 2.89 19.32-.45 28.31-1.18 3.13-3.03 6.34-6.2 7.76-4.31 1.46-8.93.99-13.39 1.03-30.33-.88-60.7-.92-91-2.28-4.11.53-5.42 7.89-.97 8.72 18.6 1.33 37.26 1.65 55.9 2.02 18.7.26 37.4.98 56.09.56 2.18.13 3.64-1.73 4.85-3.26 6-8.32 8.21-18.82 7.96-28.94.11-11.67-3.08-24-11.52-32.46-19.74-1.47-39.56-.81-59.33-1.7-17.35-.16-34.69-1.03-52.04-.65-4.89-.16-5.52 8.82-.52 9.19m140.08-7.52c-6.5.58-13.03.46-19.55.65 5.19 7.88 7.78 17.24 8.69 26.55.72 12.66-.44 26.27-7.67 37.09 6.87-.8 13.66-2.12 20.55-2.8 11.26-1.39 22.48-3.13 33.78-4.21l.06-.37c5.58.02 11.17-1.37 16.69-2.26 3.43-.44 5.99-3.03 7.43-6.03 6.48-12.22 6.49-27.36.94-39.9-2.04-3.81-4.12-8.45-8.44-10.05-4.34-.16-8.67.23-12.99.07-13.16.59-26.32.94-39.49 1.26m-597.65 9.08c-2.27 3.91-1.14 8.79.65 12.67 2.06 4.5 6.71 7.04 11.28 8.35-2.46-7.78-3.9-15.85-4.73-23.96-2.52.47-5.73.43-7.2 2.94m462.08 4.73c.8 3.06 1.35 6.18 1.75 9.32l.15 4.88c.06 6.9-.28 13.88-2.65 20.43 31.26.45 62.52 1.53 93.79 1.82 2.65.25 5.28-1.03 6.29-3.58 3.57-7.76 4.21-17.13 1.06-25.14-1.11-2.67-2.93-5.94-6.23-5.92-31.38-.48-62.77-1.61-94.16-1.81"/><path d="M739.99 148.93c1.55-2.57 4.92-3.72 7.21-1.37-9.33 9.39-14.27 22.58-15.63 35.58 11.12 1.6 21.81 5.93 31.06 12.27-1.45 1.36-3.56 3.21-5.59 1.76-7.4-4.43-15.63-7.32-24.08-8.92-2.42-.58-6.24-.95-6.21-4.24.66-12.7 5.83-24.87 13.24-35.08M547.7 190.87c-.86-2.56 2.74-2.48 4.26-1.97 6.38 2.44 11.32 7.41 16.24 11.98 3.94 3.74 8.07 7.79 9.68 13.14 1.07 2.95-2.07 4.49-3.96 5.96-6.99 4.65-11.35 11.99-16.66 18.27-.9 1.02-2.5 2.65-3.83 1.3-.2-.62-.59-1.87-.79-2.49 3.11-4.67 6.38-9.24 9.93-13.58 2.99-3.74 7.13-6.22 10.8-9.19-6.36-9.87-15.59-17.57-25.67-23.42m166.55 74.49c6.64-1.06 14.17-1.34 20.12 2.28 3.3 1.96 2.38 7.55-1.42 8.27-3.69.19-7.27-1.16-10.96-1.06-7.19.21-14.36 2.65-19.94 7.23-2.48 1.85-4.3 4.41-6.63 6.42-1.85 1.13-4.42-.42-4.68-2.46-.51-2.82 1.09-5.43 2.52-7.72 4.78-7.03 12.78-11.33 20.99-12.96m-124.9 25.09c8.83-1.66 18.89.3 25.25 6.99 1.77 1.69 2.4 4.8.3 6.5-1.83 1.71-4.2-.09-6.06-.75-8.83-4.39-19.75-4.27-28.51.23-1.92.77-4.46 2.34-6.29.56-2.53-1.87-1.12-5.41.88-7.09 4-3.56 9.24-5.42 14.43-6.44m84.15 11.03c1.3-2.09 4.88-.95 4.78 1.51.27 3.71-4.42 5.32-4.26 8.92-.1 7.71-.08 16.5-5.58 22.58-4.3 5.29-13.02 5.51-18 1.06-5.28-4.36-8.64-10.49-10.97-16.83-3.61-.78-7.88-2-9.37-5.79-1.03-1.72.91-4.07 2.79-3.22 2.55 1.37 4.88 3.99 8.1 3.11 5.54-.77 8.29-6.22 10.1-10.89 3.86 3.72 8.93 7.19 14.59 5.69 3.74-.27 5.79-3.45 7.82-6.14m-28.63 16.62c1.63 3.34 3.47 6.57 5.39 9.76 2.49 3.9 7.76 7.8 12.34 4.78 5.77-4.52 5.79-12.73 5.88-19.41l-.98.59c-4.76.82-9.55-.34-13.76-2.55-2.56 2.76-5.39 5.31-8.87 6.83M408.22 487.97c1.07-.88 2.18-1.69 3.3-2.5.88 1.61 1.78 3.25 3.01 4.66 4.77 3.67 10.63 5.41 16.35 6.99 19.38 5.01 39.83 4.56 59.41 1 7.43-1.36 14.98-3.4 21.29-7.7 1.08-1.45 2.12-2.93 3.15-4.41 1.87.83 3.68 2.51 3.12 4.78-1.1 3.55-4.32 5.93-7.41 7.72-10.37 5.19-22.09 6.51-33.47 7.72-11.32.92-22.77.96-34.04-.59-10.04-1.25-20.22-3.37-29.09-8.44-3.18-1.92-6.36-5.2-5.62-9.23"/></g><path fill="#45434d" d="M738.33 132.31c3.27-2.61 7.31-4.88 11.65-4.31 4.46.7 8.11 3.85 10.72 7.38 3.7 5.18 6.35 11 9.24 16.65 3.21 6.36 4.84 13.32 6.93 20.08 4.03 12.3 5.66 25.19 8.1 37.86.55 4.37 4.82 6.64 7.15 10.01 5.78 7.56 12.47 14.54 17.01 22.98-7.97 3.76-13.79 10.61-18.16 18.08-4.3-2.48-8.71.58-12.66 2.27-4.38 2.29-9.13 3.98-13.11 6.96-1.57 1.06-.86 3.4.8 3.9 1.86-.11 3.41-1.31 5.03-2.13 5.72-3.38 11.74-6.33 18.16-8.13-2.55 5.63-5.2 11.21-7.47 16.96-3.55 1-7.39 1.33-10.6 3.25-2.02 1.06-.1 4.21 1.8 3.48 2.28-.51 4.52-1.21 6.82-1.67-9.14 23.69-17.63 47.77-29.59 70.25-1.36 2.62-3.1 5.14-3.74 8.07-.52 3.04 4.37 4.89 5.78 2.01 10.67-19.22 19.61-39.4 27.01-60.1 5.35-13.19 9.88-26.76 16.44-39.44 2.74-5.04 5.61-10.3 10.19-13.92 4.43-3.12 9.55-5.85 15.12-5.72 7.53-.29 15.43 2.92 19.79 9.23 4.68 6.19 5.77 14.22 6.23 21.75.59 24.76-4.37 49.24-10.83 73.02-5.93 18.58-12.35 37.13-21.76 54.28-.98 2.4-3.67 6.03-.65 8 1.96 1.43 3.51-.94 4.93-2.02 4.38 11.97 8.17 24.19 10.53 36.74.59 2.96.63 5.99.59 9.01-1.4-.9-2.76-1.87-4.24-2.61-1.67-.65-3.14 1.18-3.11 2.72 4.34 16.39 5.52 33.58 4.11 50.47-1.5 15.72-6.42 31.34-15.54 44.34-7.32 9.25-16.87 17.25-28.33 20.67-15.31 5.33-31.65 6.03-47.65 7.43-14.98 1.07-30.06 2.18-45.05.59-7.34-.5-15.42-2.46-20.27-8.41-3.9-5.12-5.97-11.4-7.23-17.64-1.69-10.21 1.04-22.1 9.74-28.47 10.39-7.05 25.78-3.52 33.07 6.42 2.88 3.49 4.38 7.8 6.33 11.82 1.01 2.56 5.33 1.11 5.32-1.38.26-4.29-1.95-8.2-4.13-11.71-3.56-5.58-9.03-9.5-14.59-12.89 5.54-14.93 16.59-28.55 31.53-34.75 8.94-3.81 18.94-3.77 28.36-2.06 3.79.99 5.46-5.3 1.67-6.31-11.83-3.1-24.8-1.74-35.83 3.55-15.18 7.52-26.4 21.75-31.67 37.69-6.18-1.19-12.74-1.3-18.64 1.17-9.36 3.99-15.91 13.25-17.5 23.2-1.68 11.74.53 24.14 7.07 34.14-8.02.29-16.03-.55-24.05-.66-17.9-1.98-37.55-4.48-51.32-17.29-1.41-1.2-3.42-2.67-5.31-1.62-1.22 1.16-1.87 3.2-.7 4.63 3.4 4.06 8.48 6.11 12.3 9.7-10.97 1.52-22.06 2-33.1 2.77-15.75.17-32.12.92-47.15-4.62 4.7-7 8.94-14.36 11.79-22.31 2.4-7.41 3.7-15.12 4.86-22.81 3.75 3.16 4.85 8.39 8.52 11.58 2.86.68 4.91-2.78 3.52-5.16-2.73-5.61-6.42-10.75-10.42-15.51.03-7.93.91-15.87.12-23.78-.02-1.92-.82-4.3.94-5.71 3.51-3.42 7.02-7.22 11.81-8.78.83 4.52 1.06 9.22 2.8 13.53.7 2.13 3.75 2.49 5.11.79 1.39-1.29.32-3.27.13-4.81-4.9-18.33-1.88-37.81 4.48-55.4 3.09-6.91 5.7-14.06 9.31-20.73 1.46-2.98 3.38-5.74 4.52-8.87.4-2.91-3.84-4.44-5.52-2.09-3.49 4.61-5.92 9.96-8.19 15.25-3.91-1.82-6.69-5.26-10.01-7.9-11.49-9.94-20.57-22.18-29.62-34.28-6.63-8.78-11.28-18.81-16.55-28.42-6.33-13.64-13.66-28.06-12.04-43.56.72-4.62 1.8-9.37 4.28-13.4 7.37-10.24 23.7-11.34 33.07-3.38.89 2.58-.27 5.6-1.6 7.91-1.2-1.75-2.7-4.08-5.2-3.56-2.93.86-4.13 4.57-2.49 7.08 1.02 2.07 3.61 1.75 5.54 1.9-.71 2-1.73 3.86-2.95 5.6l-.65-.2c-1.5-.45-3.01-.9-4.5-1.36-2.2 1.14-4.73 2.05-6.18 4.2-2.62 3.61-3.41 9.13-.18 12.64 2.05 2.34 5.42 2.16 8.21 2.84 2.74 1.4 5.15 3.45 8.19 4.26-1.34 2.72-3.48 5.28-3.43 8.46-.01 3.45 2.2 6.29 3.91 9.11-1.76 1.41-5.88 3.26-3.46 5.97 2.82 1.88 6.11-1.64 8.95-2.44 1.5 1.32 4.07 2.1 4.18 4.43.53 4.31.96 9.22 4.93 11.88 7.32 5.14 16.12 7.68 23.83 12.19 13.31 7.79 27.77 14.22 43.19 16.16 3.04 1.02 5.6-3.49 3-5.46-2.53-1.2-5.38-1.4-8.07-2.04-14.71-3.14-28.07-10.32-41-17.75-6.02-3.67-13.25-5.08-18.87-9.35-.23-2.2-.06-4.41-.37-6.59-.45-2.68-2.29-4.78-3.81-6.92 4.3-1.82 8.55-3.77 13-5.2 1.37-.58 3.02-.86 4.02-2.06a9.1 9.1 0 0 0-.93-3.12c-7.34 1.61-14.24 4.66-21.17 7.49-1.86-1.75-4.02-3.61-4.31-6.32.94-3.2 3.11-5.85 4.7-8.74 6.12-.67 12.31-.03 18.41-.73 1.86-.54 1.2-3.69-.56-3.79-7.99-1.19-16.17-.53-24.15-1.82-2.77-.32-5.41-3.29-4.32-6.12 1.47-5.1 5.21-9.06 7.52-13.76 3.74-6.84 4.69-14.7 6.62-22.15 1.23-5.58 3.2-10.96 4.66-16.48.69-2.55-.5-5.05-1.16-7.47-6.16-19.49-9.3-40.08-7.78-60.53.7-5.08 1.76-10.63 5.6-14.35 1.25-1.34 3.04-2.03 4.87-1.98 5.3-.1 10.52 1.06 15.62 2.39 14.22 4.31 28.17 9.69 41.15 16.96 1.85.95 3.24 2.84 5.28 3.35 3.95-.64 6.49-4.19 10.01-5.75 4.55 3.07 9.89 6.42 15.64 4.63 2.35-.55 2.47-4.88-.04-5.2-3.31-.84-7.16-.73-9.74-3.31-1.87-1.46-1.91-4.82.41-5.88 5.95-3.23 13.47-4.1 19.76-1.32 2.03 1.08 4.48-.65 4.27-2.91-.93-4.11-6.06-7.17-4.3-11.8 7.74-.97 15.21 2.11 21.77 5.92 2.69 1.57 4.8 4 7.61 5.39 6.28 1.38 12.82.22 19.16 1.18 1.39.86 1.49 3.48 3.45 3.47 2.74.45 3.94-2.32 5.18-4.18 5.09-8.31 11.77-15.44 17.78-23.06 6.98-7.66 14.17-15.21 22.35-21.63m1.66 16.62c-7.41 10.21-12.58 22.38-13.24 35.08-.03 3.29 3.79 3.66 6.21 4.24 8.45 1.6 16.68 4.49 24.08 8.92 2.03 1.45 4.14-.4 5.59-1.76.36.24 1.09.72 1.45.96 1.04-4.06-.04-8.21-.64-12.25-2.1-11.03-4.75-22.22-10.54-31.97-1.39-2-3.06-4.38-5.7-4.59-2.29-2.35-5.66-1.2-7.21 1.37M547.7 190.87l-.89-.53c-1.41 2.3-2.4 4.88-2.49 7.6-.74 10.32.68 20.7 3.04 30.74 1.1 3.44 1.66 7.3 4.21 10.05.26-.42.8-1.25 1.07-1.67.2.62.59 1.87.79 2.49 1.33 1.35 2.93-.28 3.83-1.3 5.31-6.28 9.67-13.62 16.66-18.27 1.89-1.47 5.03-3.01 3.96-5.96-1.61-5.35-5.74-9.4-9.68-13.14-4.92-4.57-9.86-9.54-16.24-11.98-1.52-.51-5.12-.59-4.26 1.97m275.25 67.06c-2.91 1.12-2.88 4.52-2.4 7.08l.25-.34c.57.4 1.71 1.22 2.28 1.63 3.63 1.15 5.53-3.28 5.41-6.23-1.27-1.73-3.35-3.41-5.54-2.14m-15.63 2.38c-2.2 1.35-3 4.66-1.48 6.76 1.63 2.54 6.31 1.93 7.05-1.07 1.43-3.11-2.36-7.83-5.57-5.69m-93.07 5.05c-8.21 1.63-16.21 5.93-20.99 12.96-1.43 2.29-3.03 4.9-2.52 7.72.26 2.04 2.83 3.59 4.68 2.46 2.33-2.01 4.15-4.57 6.63-6.42 5.58-4.58 12.75-7.02 19.94-7.23 3.69-.1 7.27 1.25 10.96 1.06 3.8-.72 4.72-6.31 1.42-8.27-5.95-3.62-13.48-3.34-20.12-2.28m119.17 2.2c-1.43 1.3-2.25 3.67-1.25 5.45 1.59 3.51 7.95 1.84 7.72-1.99.89-3.61-3.98-6.06-6.47-3.46m-16.09 4.04c-4.56 1.23-9.12 5.41-8.66 10.46 1.16 4.97 6.82 6.64 11.29 7.11 3.52.19 8.35-.62 9.32-4.68 2.27-6.99-4.5-15.34-11.95-12.89m-82.95 14.99c-3.91 1.26-7.81 3.15-10.48 6.36-1.72 1.99-2.41 5.01-1.29 7.44 1.82 3.33 5.65 4.96 9.3 5.19 7.9.66 16.55-1.64 21.94-7.73 2.71-2.97 1.93-8.08-1.5-10.13-5.37-3.22-12.16-2.7-17.97-1.13m-230.15 2.55c-2.49 1.62-2.31 5.69.15 7.27 2.39 2.43 7.09-.14 6.49-3.44.16-3.28-3.91-5.69-6.64-3.83m143.36.71c-2.28.69-5.18 1.51-5.95 4.06.06 3.42 3.57 5.28 6.44 6.14 3.58 1.2 6.9-1.55 8.61-4.47 1.26-1.71 1.9-4.63-.06-6.1-2.9-1.28-6.11-.21-9.04.37m-58.24.6c-5.19 1.02-10.43 2.88-14.43 6.44-2 1.68-3.41 5.22-.88 7.09 1.83 1.78 4.37.21 6.29-.56 8.76-4.5 19.68-4.62 28.51-.23 1.86.66 4.23 2.46 6.06.75 2.1-1.7 1.47-4.81-.3-6.5-6.36-6.69-16.42-8.65-25.25-6.99m-91.96 9.98c-2.46.45-3.78 3.23-2.9 5.51.73 2.98 5.09 4.19 7.05 1.7 2.7-2.89-.51-7.77-4.15-7.21m176.11 1.05c-2.03 2.69-4.08 5.87-7.82 6.14-5.66 1.5-10.73-1.97-14.59-5.69-1.81 4.67-4.56 10.12-10.1 10.89-3.22.88-5.55-1.74-8.1-3.11-1.88-.85-3.82 1.5-2.79 3.22 1.49 3.79 5.76 5.01 9.37 5.79 2.33 6.34 5.69 12.47 10.97 16.83 4.98 4.45 13.7 4.23 18-1.06 5.5-6.08 5.48-14.87 5.58-22.58-.16-3.6 4.53-5.21 4.26-8.92.1-2.46-3.48-3.6-4.78-1.51m-95.97 17.34c-4.96 1.24-10.38 4-12.02 9.2-1.02 4.36 2.75 7.93 6.65 8.95 6.81 1.78 14.54.66 20.29-3.52 2.05-1.61 4.29-3.66 4.3-6.48.61-3.72-2.56-6.79-5.85-7.82-4.3-1.39-8.99-1.17-13.37-.33m101.85 217.67c-2.64 1.59-2.45 5.57-.16 7.4 2.29 2.15 6.69.37 6.63-2.84.71-3.42-3.47-6.93-6.47-4.56m15.84 2.75c-2.49.86-3.51 3.88-2.55 6.23 1.53 2.47 5.43 2.73 7.01.15 2.48-2.99-.64-7.96-4.46-6.38m-26.85 4.07c-4.63 1.78-1.07 10.19 3.46 7.47 4.4-2.03 1-9.32-3.46-7.47m14.9 7.01c-7.51 2.09-10.1 13.43-4.03 18.45 4.71 4.48 13.63 2.92 16.1-3.23 4.04-7.48-3.8-17.53-12.07-15.22m235.08-206.83c8.55-1.7 17.65-.38 25.32 3.77 4.07 2.19 6.62 6.25 8.78 10.19 5.52 10.34 3.99 24.24-4.32 32.67-6.86 6.83-16.86 8.56-25.26 12.77-7.44 3.26-14.82 8.04-18.21 15.74-5.07 11.45-5.44 24.48-4.11 36.76-11.45 1.49-23.12.4-34.5 2.6-4.17.8-7.93 3.26-10.37 6.72-3.75 4.54-4.66 10.58-5.5 16.22-1.31 8.28 1.33 17.27 7.63 22.96-4.85.36-9.73-.02-14.57.42-7.79 1.02-11.26 12-6.3 17.76 1.37 2.24 3.99 2.98 6.32 3.82.68 4.61 1.42 9.24 1.52 13.91-7.13 3.51-14.83 6.02-22.72 7.04 8.79-16.91 11.72-36.35 11.49-55.24 7.06-3.41 11.93-9.99 15.37-16.84 5.74-9.87 7.4-21.5 7.96-32.74.28-13.67-1.76-27.48.78-41.04 3.01-16.71 10.08-33.05 21.81-45.5 3.13-2.97 6.75-7.14 11.57-5.89.81 1.33 1.02 3.57 2.9 3.85 2.35-.35 4.12-2.07 6.07-3.28 5.42-3.78 11.95-5.42 18.34-6.67"/><g fill="#e0c3b1"><path d="M824.47 259.49c1.34.2 2.66.38 4.02.58.12 2.95-1.78 7.38-5.41 6.23-.57-.41-1.71-1.23-2.28-1.63 1.25-1.71 2.46-3.44 3.67-5.18m-320.24 29.65c2.73-1.86 6.8.55 6.64 3.83.6 3.3-4.1 5.87-6.49 3.44-2.46-1.58-2.64-5.65-.15-7.27m-52.04 99.26c1.38-.36 1.85 1.14 1.4 2.21-1.34 4.44-4.34 8.54-3.86 13.39.64 8.12 7.78 13.4 10.72 20.59 3.95 8.09 2.15 18.63-4.36 24.85-.44-.16-1.32-.47-1.76-.63-.11-3.83.53-7.78-.81-11.48-2.22-6.77-8.31-11.13-11.67-17.24-4.53-7.74-3.39-18.11 2.29-24.98 2.29-2.57 4.53-5.86 8.05-6.71m454.84 73.38c18.88-.22 37.71-1.44 56.59-1.5.14 2.18-.27 4.32-1.21 6.3-17.46-.01-34.89 1.12-52.35 1.21-11.34.76-22.71.74-34.07.97-2.94.15-6.26.45-8.38 2.75-4.98 5.11-5.51 13.38-2.87 19.75 1.67 4.08 5.81 7.08 10.28 7 15.67.25 31.36.15 47.02.92 13.41.14 26.82.16 40.23.52.74 1.94 1.19 3.98.73 6.07-16.33.07-32.67-.28-48.97-1-12-.31-24.02-.28-36-.98-4.77-.23-10.19.69-14.14-2.63-6.53-5.17-8.6-14.33-7.2-22.25.97-5.15 3.03-10.7 7.71-13.57 2.85-1.84 6.33-1.97 9.62-2.12 10.98-.96 22.03-.45 33.01-1.44m62.42-1.59c7.83.3 15.68.26 23.52.67 6.32.84 12.71.41 19.06.85 7.04 1.05 14.18.43 21.26.88.22 2.03.77 4.37-.91 5.97-21.03-.9-42.08-1.2-63.15-1.28.2-2.36.3-4.72.22-7.09"/><path d="M964.17 493.82c-1.62-7.04-1.39-14.54.64-21.48 20.92.59 41.83 1.4 62.77 1.61-.67 1.92-1.31 3.86-1.76 5.86-.42 1.68-.81 3.43-1.78 4.91-.17-1.46-.33-2.91-.45-4.36-13.18-.21-26.36.13-39.54 0 .26 1.44.55 2.89.83 4.34 12.84-.03 25.71-.57 38.52.4-2.67 1.32-4.33 3.86-6.51 5.77-5.02.74-10.09 1.11-15.09 1.96-12.53.55-25.09.89-37.63.99m-527.25-17.89c6.34-.85 12.69-1.84 19.11-1.74 12.37.19 24.98-.61 37.04 2.77-4.57 1.2-9.21 2.23-13.4 4.5-11.52-1.08-23.15-1.28-34.65.11-10.49 1.32-21.25 3.12-30.49 8.56-1.23-1.41-2.13-3.05-3.01-4.66-1.12.81-2.23 1.62-3.3 2.5-1.23-1.71-2.37-3.49-3.22-5.41 1.87-1.29 3.8-2.5 5.79-3.59-.26 1.15-.52 2.3-.77 3.46 9.09-1.67 17.72-5.25 26.9-6.5M918 480.56c11-.51 22.02-.28 33.04-.57 1.75.07 3.7-.27 5.29.72.38 1.3.39 2.67.55 4.03-11.26.83-22.57.19-33.86.55-9.34-.2-18.73.7-28.03-.25.19-1.54-.29-4.16 2.07-4 6.94-.73 13.96-.16 20.94-.48m-396.69 15.72c2.52 2.92 3.88 6.57 4.78 10.27-1.15 17.44-3.82 35.5-12.85 50.79-5.61 9.6-14.48 17.35-25.08 20.91-16.77 5.81-35.79 5.89-52.25-.99.47-.36 1.43-1.08 1.91-1.43 4.73.38 9.42 1.99 14.22 1.15 15.61-2.17 31-9.48 40.79-22.13 12.49-14.69 17.43-34.36 17.41-53.33 2.9-.33 5.91.2 8.77-.44.97-1.49 1.59-3.18 2.3-4.8m447.34 3.48c21.3.24 42.52-1.62 63.83-1.49l.92 2.64c-.24.72-.71 2.15-.94 2.87-3.85-.26-7.69 0-11.49.5-9.02.36-18.04.29-27.05.56-8.3 1.11-16.75.38-25.11.86-.01-1.98-.06-3.96-.16-5.94m-117.94 35.25c4.74-.43 9.49-.5 14.25-.35 20.04.28 40.07.63 60.11.71 1.95-.07 3.79.66 5.59 1.39-.71 1.7-1.16 4.44-3.66 3.92-25.38.31-50.76-.58-76.14-.79zm-171.33 1.48c3-2.37 7.18 1.14 6.47 4.56.06 3.21-4.34 4.99-6.63 2.84-2.29-1.83-2.48-5.81.16-7.4m-298.18 4.45c1.07 1.29 2.12 2.61 3.17 3.94.74-.72 1.48-1.44 2.23-2.15 4.16 3.21 9.2 4.94 14.39 5.49 1.62 3.41 3.3 6.81 5 10.2-8.83-.01-17.8-2.81-24.77-8.29 1.27-3.1-1.79-6.07-.02-9.19m287.17 2.37c4.46-1.85 7.86 5.44 3.46 7.47-4.53 2.72-8.09-5.69-3.46-7.47m184.04 5.05c1.5-.37 3-.83 4.57-.85 16.35-.12 32.71.18 49.06.24 1.47.01 4.04.15 3.66 2.29.21 2.5-2.89 2.81-4.7 2.71-17.55-.05-35.11-.16-52.62-1.1 0-1.1.01-2.2.03-3.29"/></g><g fill="#e7716b"><path d="M644.87 318.1c3.48-1.52 6.31-4.07 8.87-6.83 4.21 2.21 9 3.37 13.76 2.55-6.83 3.23-11.97 8.8-17.24 14.04-1.92-3.19-3.76-6.42-5.39-9.76m199.58 201.3c-5-.37-4.37-9.35.52-9.19 17.35-.38 34.69.49 52.04.65 19.77.89 39.59.23 59.33 1.7 8.44 8.46 11.63 20.79 11.52 32.46.25 10.12-1.96 20.62-7.96 28.94-1.21 1.53-2.67 3.39-4.85 3.26-18.69.42-37.39-.3-56.09-.56-18.64-.37-37.3-.69-55.9-2.02-4.45-.83-3.14-8.19.97-8.72 30.3 1.36 60.67 1.4 91 2.28 4.46-.04 9.08.43 13.39-1.03 3.17-1.42 5.02-4.63 6.2-7.76 3.34-8.99 3.81-19.26.45-28.31-1.71-4.77-5.32-9.95-11.02-9.6-33.2-.57-66.42-1.07-99.6-2.1m179.57-8.78c4.32.16 8.65-.23 12.99-.07 4.32 1.6 6.4 6.24 8.44 10.05 5.55 12.54 5.54 27.68-.94 39.9-1.44 3-4 5.59-7.43 6.03-5.52.89-11.11 2.28-16.69 2.26.05-.26.14-.78.18-1.04 1.67.1 4.44 1.56 5.5-.65 3.24-5.04 5.17-10.89 6.23-16.76 1.71-13.63-.71-28.1-8.28-39.72"/><path d="M964.98 512.53c6.52-.19 13.05-.07 19.55-.65 3.53 7.39 7.13 14.9 8.04 23.15 2.4 13.05-.21 26.53-6.02 38.34-6.89.68-13.68 2-20.55 2.8 7.23-10.82 8.39-24.43 7.67-37.09-.91-9.31-3.5-18.67-8.69-26.55"/></g><path fill="#f6e8d9" d="M444.6 470.97c21.83-2.13 44.27-.75 65.15 6.29 3.4 1.14 6.57 2.84 9.72 4.54-.62.93-1.24 1.87-1.85 2.82-7.89-3.38-16.13-5.96-24.55-7.66-12.06-3.38-24.67-2.58-37.04-2.77-6.42-.1-12.77.89-19.11 1.74-9.18 1.25-17.81 4.83-26.9 6.5.25-1.16.51-2.31.77-3.46 10.67-4.69 22.32-6.58 33.81-8m430.52 3.57c27.91-.9 55.86-1.08 83.76-2.39-1.85 7.19-1.87 14.7-.29 21.94-27.88-.93-55.78-1.47-83.66-2.09-5.31-.24-6.93-6.76-5.76-11.06.32-3.12 2.49-6.46 5.95-6.4m42.88 6.02c-6.98.32-14-.25-20.94.48-2.36-.16-1.88 2.46-2.07 4 9.3.95 18.69.05 28.03.25 11.29-.36 22.6.28 33.86-.55-.16-1.36-.17-2.73-.55-4.03-1.59-.99-3.54-.65-5.29-.72-11.02.29-22.04.06-33.04.57M400.83 489c.5-2.63 2.48-4.52 4.17-6.44.85 1.92 1.99 3.7 3.22 5.41-.74 4.03 2.44 7.31 5.62 9.23 8.87 5.07 19.05 7.19 29.09 8.44 11.27 1.55 22.72 1.51 34.04.59 11.38-1.21 23.1-2.53 33.47-7.72-.08 1-.15 2-.2 3.01.02 18.97-4.92 38.64-17.41 53.33-9.79 12.65-25.18 19.96-40.79 22.13-4.8.84-9.49-.77-14.22-1.15-.48.35-1.44 1.07-1.91 1.43-8.65-3.71-16.28-9.84-21.69-17.55-9.21-13.74-12.73-30.41-13.85-46.69-.35-8-1.13-16.1.46-24.02m-27.49 21.4c4.48-6.28 12.71-8.86 20.17-8.2-.1 3.31-.05 6.63.1 9.94-5.62-.45-11.44 2.65-13.41 8.09-2.85 7.89.39 16.97 6.4 22.5-.75.71-1.49 1.43-2.23 2.15-1.05-1.33-2.1-2.65-3.17-3.94-1.77 3.12 1.29 6.09.02 9.19-5.57-4.56-9.81-10.9-11.01-18.07-1.23-7.23-1.39-15.47 3.13-21.66m475.62 15.29c31.39.2 62.78 1.33 94.16 1.81 3.3-.02 5.12 3.25 6.23 5.92 3.15 8.01 2.51 17.38-1.06 25.14-1.01 2.55-3.64 3.83-6.29 3.58-31.27-.29-62.53-1.37-93.79-1.82 2.37-6.55 2.71-13.53 2.65-20.43 25.38.21 50.76 1.1 76.14.79 2.5.52 2.95-2.22 3.66-3.92-1.8-.73-3.64-1.46-5.59-1.39-20.04-.08-40.07-.43-60.11-.71-4.76-.15-9.51-.08-14.25.35-.4-3.14-.95-6.26-1.75-9.32m3.45 22.67c-.02 1.09-.03 2.19-.03 3.29 17.51.94 35.07 1.05 52.62 1.1 1.81.1 4.91-.21 4.7-2.71.38-2.14-2.19-2.28-3.66-2.29-16.35-.06-32.71-.36-49.06-.24-1.57.02-3.07.48-4.57.85"/><path fill="#7e5341" d="M414.53 490.13c9.24-5.44 20-7.24 30.49-8.56 11.5-1.39 23.13-1.19 34.65-.11 10.94 1.45 22.46 2.71 31.91 8.96-6.31 4.3-13.86 6.34-21.29 7.7-19.58 3.56-40.03 4.01-59.41-1-5.72-1.58-11.58-3.32-16.35-6.99"/><path fill="#f7cf90" d="M984.53 511.88c13.17-.32 26.33-.67 39.49-1.26 7.57 11.62 9.99 26.09 8.28 39.72-1.06 5.87-2.99 11.72-6.23 16.76-1.06 2.21-3.83.75-5.5.65-.04.26-.13.78-.18 1.04l-.06.37c-11.3 1.08-22.52 2.82-33.78 4.21 5.81-11.81 8.42-25.29 6.02-38.34-.91-8.25-4.51-15.76-8.04-23.15"/></svg>