<svg xmlns="http://www.w3.org/2000/svg" width="1408pt" height="736pt" viewBox="0 0 1408 736"><g fill="#fcfcfc"><path d="M723.35 218.48c10.31-3.77 22.37-4.29 32.28.96 8.95 4.77 15.11 13.29 20.02 21.92 4.27 7.44 6.51 15.78 9.24 23.86 12.21-2.62 24.55-4.96 37.09-5.05 22.37-.32 45.27 2.04 66.01 10.93 10.41 4.44 21.79 6.49 31.54 12.47 6.83 4.16 13.84 9.01 17.48 16.38 1.61 2.99 2.25 6.78 5.31 8.75 9.56 6.94 19.05 14.28 26.42 23.62 4.88 6.15 8.37 13.74 8.35 21.72.07 3.7-1.25 7.66.69 11.12 7.55 15.16 11.37 31.98 12.15 48.85.06 4.03 2.24 7.52 3.82 11.1 7.91 18.12 10.25 38.42 7.84 57.98-3.08 25.34-13.03 50.22-30.03 69.45-3.79 4.36-8.36 8.26-13.88 10.19-3.49 1.31-7.3 1.16-10.85 2.16-3.28 1.88-5.52 5.08-8.55 7.3-9.11 6.98-18.97 13.14-29.69 17.31-7.46 2.86-15.66 5.22-23.66 3.33-3.93-.8-7.7-3.78-11.81-2.13-13.06 3.76-26.57 5.97-40.17 6.15-24.33 1.27-49.55-1.83-71.29-13.42-5.84-3.07-10.85-7.39-15.8-11.68-12.74 3.3-25.63 6.48-38.85 6.92-17.77.76-36.09-1.71-51.99-10.07-19.86 10.21-43.37 12.17-64.96 7.04-1.64-.4-3.47-.8-4.74.65-7.13 6.3-15.48 11.01-24.19 14.77-14.69 6.94-30.98 9.9-47.11 10.6-31.38 1.16-64.31-7.34-88.11-28.6-13.2-12.64-23.48-29.02-26.55-47.24-4.51-20.69-1.91-42.73 6.45-62.12 2.87-6.93 7.41-12.97 10.57-19.75-9.02-3.27-18.82-6.49-25-14.33-8.83-10.39-5.09-28.02 6.65-34.61 4.35-2.92 9.72-2.93 14.71-3.72-1.87-6.12-2.31-13.02.66-18.88 3.81-8.58 13.31-14.14 22.67-13.14 3.55-.02 6.72 2.12 10.23 2.15 2.09-4.18 3.37-8.93 6.92-12.2 5.84-6.44 15.34-7.18 23.43-5.95 1.13.25 2.26.5 3.4.76-2.35-10.55-4.71-21.18-4.71-32.04.01-9.56.83-19.9 6.82-27.78 5.14-7.28 13.8-10.87 22.21-12.8 18.76-3.82 37.94 0 56.37 3.84 5.51 1.01 10.77 3.13 16.31 4.01 3.08-1.87 5.21-4.92 8.16-7 3.12-2.48 6.95-3.77 10.3-5.86 2.44-2.27 3.83-5.42 6.06-7.88 5-5.99 12.76-9.11 20.43-9.51 9.77-.41 19.59 2.16 28.07 6.97 3.87 2.46 8.58 1.84 12.94 2.1 3.28 0 6.65.65 9.88-.12 1.77-1.23 3.16-2.9 4.63-4.47 5.34-5.96 10.99-11.69 17.28-16.66 8.84-7.06 17.91-14.2 28.55-18.35m-6.34 25.49c-13.72 9.69-25.86 21.52-35.99 34.91-10.58-2.04-21.42-1.44-32.11-1.12-1.24.05-2.14-.95-3.14-1.48-6.63-4.58-14.49-8.06-22.7-7.72-4.05.3-8.64 2.32-9.88 6.52-.96 2.37-.2 4.91.38 7.27-6.2.15-13.14.82-17.78 5.42-1.78 1.65-2.33 4.09-2.58 6.41-4.65 2.02-9.11 4.47-13.08 7.64-16.21-8.03-34.44-10.4-52.24-12.18-8.71-.44-18-.92-26 3.17-3.89 1.88-6.36 5.89-6.84 10.11-1.82 12.84.97 25.78 4.28 38.14 4.83 16.83 12.26 32.87 21.31 47.83-.22 3.92-1.03 7.77-1.42 11.68l-.3.31c-.57 3.47-1.07 6.96-1.68 10.42-.64 4.35-.54 8.75-.75 13.12-1.8-5.25-1.31-11.9-5.47-16.28-5.18-4.84-14.77-1.86-16.54 4.92-.76 4.26 1.16 8.34 2.34 12.34-7.73-2.07-16.1-1.76-23.85.07-4.98 1.27-11.41 4.38-10.29 10.62-13.64 4.24-25.46 13.44-33.4 25.25-10.39 15.72-13.88 35.2-12.22 53.77 2 16.77 9.91 32.97 22.68 44.14 10.58 9.28 23.61 15.5 37.25 18.75 21.26 5.42 44.08 5.5 65.16-.81 14.86-4.76 29.57-12.47 39.14-25.13 2.68 1.11 5.39 2.2 8.19 3 1.41.34 2.81.71 4.27.91 13.49 3.29 27.91 3.71 41.32-.14 8.49-2.44 16.68-7.31 20.96-15.31 2.23 4.03 4.96 7.96 8.93 10.46 7.25 4.56 15.77 6.56 24.17 7.6 21.77 2.53 43.6-2.54 63.78-10.45.8 3.14 2.47 5.99 4.76 8.28 9.23 9.35 21.77 14.5 34.32 17.6 18.39 3.94 37.49 4.6 56.1 1.84 11.49-1.63 22.99-3.8 33.92-7.79 1.15 3.91 4.88 6.7 9.03 6.2 7.85-.82 14.88-4.89 21.75-8.52 10.66-6.35 20.3-14.39 28.81-23.4 2.09 1.7 4.68 2.72 7.42 2.28 3.93-.36 6.89-3.38 9.34-6.22 7.58-8.96 13.63-19.26 17.77-30.24 9.93-26.41 10.71-57.67-3.63-82.64-3.14-3.48-1.62-8.29-2.11-12.49-1.22-18.33-6.98-36.31-16.51-52 5.92-3.44 3.9-11.64.23-16.05-9.62-11.26-21.26-20.86-34.31-27.89.44-2.29 1.37-4.73.44-7.02-1.42-3.35-4.32-5.83-7.35-7.7-6.53-3.89-13.43-7.35-20.82-9.2-2.41-.72-5.14-.47-7.27-1.92-4.78-3.53-10.67-4.91-16.25-6.61-32.14-8.61-67.03-6.7-97.91 5.8-2.64-14.85-6.42-29.83-14.19-42.9-3.68-5.86-9.12-11.88-16.53-12.16-8.46-.31-16.05 4.15-22.91 8.59M465.46 365.02c-.53 5.11 1.55 9.97 2.44 14.93 1.15 4.24 1.31 8.83 3.35 12.78 1.75 2.69 5.71 1.86 7.18-.69.19-3.37-1.03-6.59-1.69-9.84-1.62-6.48-2.26-13.21-4.61-19.5-2.45-.66-5.91-.7-6.67 2.32m-35.14 17.06c-.73 2.41 1.31 4.24 2.59 6 4.49 5.52 8.68 11.34 13.68 16.42 1.41 1.77 3.75 1.14 5.67.87.83-1.87 1.63-4.1.15-5.89-4.49-6.41-9.79-12.22-14.51-18.45-1.65-2.95-6.76-2.15-7.58 1.05m-23.76 30.26c-2.02 2.13-1.43 6.14 1.51 7.1 7.87 3.24 15.99 5.86 24.17 8.23 1.33-1.28 3.43-2.53 3.14-4.7.18-2.08-1.88-3.24-3.51-3.92-6.49-2.68-13.19-4.78-19.79-7.15-1.75-.57-4.21-1.32-5.52.44"/><path d="M505.28 489.44c1.81-.62 4.45.26 4.34 2.51.36 5.7.01 11.43.05 17.14-.08 1.94-.21 4.96-2.66 5.29-2.04.53-3.71-1.62-3.54-3.5-.28-5.64-.11-11.3-.17-16.94.03-1.62.02-4.02 1.98-4.5m-42.65 21.86c-.38-3.87.05-7.93 2.15-11.28.64.48 1.92 1.43 2.56 1.91.32 3.37-.6 6.7-1.92 9.77-.94-.14-1.87-.27-2.79-.4m83.09-10.7c.88-.04 2.63-.13 3.51-.18.61 2.85 1.4 5.76 1 8.71-.08 1.75-2.32 2.18-3.37 1.08-1.56-2.95-1.26-6.4-1.14-9.61"/></g><g fill="#dfd5f6"><path d="M631.69 181.67c36.25-12.57 77.43-9.9 111.89 6.89 17.85 8.11 33.91 19.46 51.04 28.89 15.87 8.63 32.28 17.24 50.39 19.81 23.21 4.55 46.98 5.4 70.09 10.5 14.6 2.79 28.86 7.8 41.5 15.67 14.31 9.33 24.71 23.51 32.36 38.56 5.93 12.59 10.38 26.04 11.34 40 1.29 15.72-.64 31.55-3.61 46.99-.65 3.27-1.27 6.61-2.88 9.58-2.67-11.2-4.93-22.73-10.38-32.98-2.84-5.48-.87-11.84-2.04-17.68-1-9.48-7.08-17.25-13.22-24.09-5.92-6.84-13.12-12.42-20.67-17.32-4.58-2.6-4.73-8.44-7.58-12.39-4.99-7.8-13.28-12.53-21.3-16.7-8.74-4.55-18.26-7.22-27.45-10.67-16.96-6.63-34.92-11.05-53.16-11.79-11.01-.43-22.09-.49-33.01 1.15-5.69.77-11.26 2.16-16.93 3.02-4.96-17-13.1-34.92-29.36-43.77-10.39-6.46-23.62-6.6-34.9-2.53-21.05 8.04-38.12 23.63-53 40.11-5.38-.1-10.84.41-16.14-.68-5.31-1.82-10.11-5-15.63-6.26-13.17-3.71-28.84-2.82-39.52 6.52-3.47 2.7-4.78 7.17-7.89 10.13-5.36 3.26-11.08 6.01-15.75 10.29-7.12-.71-13.89-3.21-20.94-4.32-8-1.25-15.96-2.83-24.01-3.7 3.57-6.19 7.88-11.92 12.39-17.47 11.52-14.7 24.89-27.96 39.64-39.42 14.85-11.07 31.23-20.21 48.73-26.34M473.06 337.38c.34 2.4 1.5 4.56 3.59 5.89-8.09-1.23-17.59-.49-23.43 5.95-3.55 3.27-4.83 8.02-6.92 12.2-3.51-.03-6.68-2.17-10.23-2.15-9.36-1-18.86 4.56-22.67 13.14-2.97 5.86-2.53 12.76-.66 18.88-4.99.79-10.36.8-14.71 3.72-11.74 6.59-15.48 24.22-6.65 34.61 6.18 7.84 15.98 11.06 25 14.33-3.16 6.78-7.7 12.82-10.57 19.75-8.36 19.39-10.96 41.43-6.45 62.12 3.07 18.22 13.35 34.6 26.55 47.24 23.8 21.26 56.73 29.76 88.11 28.6 16.13-.7 32.42-3.66 47.11-10.6 8.71-3.76 17.06-8.47 24.19-14.77 1.27-1.45 3.1-1.05 4.74-.65-.76 0-2.29-.01-3.06-.01.22 1.52.44 3.05.67 4.58 18.08 4.65 37.41 4.09 55.3-1.18 4.11-1.13 7.9-3.23 12.04-4.27 4.15.85 7.79 3.25 11.88 4.37 24.72 7.55 51.38 5.26 76.04-1.37 2.06-.79 3.54 1.18 5.05 2.22 11.46 9.54 25.34 16.14 40.06 18.7-1.28.14-2.54.35-3.77.65-39.53 13.75-81.29 22.38-123.3 21.43-20.76-.35-41.73-2.07-61.7-8.11-12.36-3.29-24-8.79-35.28-14.74-2.05-1.4-4.34-.07-6.38.61-6.38 2.45-13.01 4.16-19.68 5.61-13.7 3.16-27.89 3.05-41.85 2.4-12.47-1.47-25.01-3.46-36.82-7.86-14.58-4.94-27.91-13.27-39.08-23.82-14.94-14.53-24.67-34.21-27.23-54.89-3.61-25.54 2.67-51.97 16.09-73.87-9.73-3-19.56-8.18-24.61-17.42-6.13-12.16-2.45-28.51 8.7-36.5 3.74-2.89 8.34-4.22 12.88-5.25-.3-7.47.89-15.27 5.52-21.36 4.91-6.82 13.02-11.28 21.43-11.65 3.3-.06 6.55.65 9.83.94 3.95-8.52 11.89-15.2 21.18-16.95 3.01-.41 6.06-.38 9.09-.52"/><path d="M431.02 501.03c.4-3.36.5-7.13 2.91-9.78 1.87.12 2.73 1.05 2.57 2.78-.44 2.76-1.65 5.31-2.79 7.83-.9-.28-1.8-.56-2.69-.83m145.5-6.14c.39-.52 1.17-1.55 1.57-2.07 2.32 1.61 2.84 4.53 2.61 7.18.22 1.37-1.42 1.55-2.28 2.05-.78-2.35-1.37-4.75-1.9-7.16m76.63 22.91c1.98-.03 3.97-.21 5.95-.49-1.13 1.4-2.13 2.9-3.01 4.48-.92-1.38-1.9-2.72-2.94-3.99"/></g><path fill="#bfb7d1" d="M723.81 212.81c11.28-4.07 24.51-3.93 34.9 2.53 16.26 8.85 24.4 26.77 29.36 43.77 5.67-.86 11.24-2.25 16.93-3.02 10.92-1.64 22-1.58 33.01-1.15 18.24.74 36.2 5.16 53.16 11.79 9.19 3.45 18.71 6.12 27.45 10.67 8.02 4.17 16.31 8.9 21.3 16.7 2.85 3.95 3 9.79 7.58 12.39 7.55 4.9 14.75 10.48 20.67 17.32 6.14 6.84 12.22 14.61 13.22 24.09 1.17 5.84-.8 12.2 2.04 17.68 5.45 10.25 7.71 21.78 10.38 32.98 1.59 7.79-.38 16.47 4.19 23.45 12.15 27.22 12.11 58.82 3.37 87.03-4.06 14.03-11.12 27.02-19.39 38.99-6.36 8.68-13.99 17.62-24.9 20.32-3.19 1.19-7.34.1-9.76 2.93-6.94 7-15.37 12.28-23.9 17.13-10.88 5.9-22.87 11.01-35.5 10.29-4.16-.17-7.98-1.97-11.95-2.98-28.62 7.15-58.94 9.08-87.93 2.96-14.72-2.56-28.6-9.16-40.06-18.7-1.51-1.04-2.99-3.01-5.05-2.22-24.66 6.63-51.32 8.92-76.04 1.37-4.09-1.12-7.73-3.52-11.88-4.37-4.14 1.04-7.93 3.14-12.04 4.27-17.89 5.27-37.22 5.83-55.3 1.18-.23-1.53-.45-3.06-.67-4.58.77 0 2.3.01 3.06.01 21.59 5.13 45.1 3.17 64.96-7.04 15.9 8.36 34.22 10.83 51.99 10.07 13.22-.44 26.11-3.62 38.85-6.92 4.95 4.29 9.96 8.61 15.8 11.68 21.74 11.59 46.96 14.69 71.29 13.42 13.6-.18 27.11-2.39 40.17-6.15 4.11-1.65 7.88 1.33 11.81 2.13 8 1.89 16.2-.47 23.66-3.33 10.72-4.17 20.58-10.33 29.69-17.31 3.03-2.22 5.27-5.42 8.55-7.3 3.55-1 7.36-.85 10.85-2.16 5.52-1.93 10.09-5.83 13.88-10.19 17-19.23 26.95-44.11 30.03-69.45 2.41-19.56.07-39.86-7.84-57.98-1.58-3.58-3.76-7.07-3.82-11.1-.78-16.87-4.6-33.69-12.15-48.85-1.94-3.46-.62-7.42-.69-11.12.02-7.98-3.47-15.57-8.35-21.72-7.37-9.34-16.86-16.68-26.42-23.62-3.06-1.97-3.7-5.76-5.31-8.75-3.64-7.37-10.65-12.22-17.48-16.38-9.75-5.98-21.13-8.03-31.54-12.47-20.74-8.89-43.64-11.25-66.01-10.93-12.54.09-24.88 2.43-37.09 5.05-2.73-8.08-4.97-16.42-9.24-23.86-4.91-8.63-11.07-17.15-20.02-21.92-9.91-5.25-21.97-4.73-32.28-.96-10.64 4.15-19.71 11.29-28.55 18.35-6.29 4.97-11.94 10.7-17.28 16.66-1.47 1.57-2.86 3.24-4.63 4.47-3.23.77-6.6.12-9.88.12-4.36-.26-9.07.36-12.94-2.1-8.48-4.81-18.3-7.38-28.07-6.97-7.67.4-15.43 3.52-20.43 9.51-2.23 2.46-3.62 5.61-6.06 7.88-3.35 2.09-7.18 3.38-10.3 5.86-2.95 2.08-5.08 5.13-8.16 7-5.54-.88-10.8-3-16.31-4.01-18.43-3.84-37.61-7.66-56.37-3.84-8.41 1.93-17.07 5.52-22.21 12.8-5.99 7.88-6.81 18.22-6.82 27.78 0 10.86 2.36 21.49 4.71 32.04-1.14-.26-2.27-.51-3.4-.76-2.09-1.33-3.25-3.49-3.59-5.89-2.9-14.44-4.37-29.63-.74-44.07 2.64-10.52 10.39-19.52 20.41-23.67 12.06-4.9 25.34-5.55 38.2-4.74 8.05.87 16.01 2.45 24.01 3.7 7.05 1.11 13.82 3.61 20.94 4.32 4.67-4.28 10.39-7.03 15.75-10.29 3.11-2.96 4.42-7.43 7.89-10.13 10.68-9.34 26.35-10.23 39.52-6.52 5.52 1.26 10.32 4.44 15.63 6.26 5.3 1.09 10.76.58 16.14.68 14.88-16.48 31.95-32.07 53-40.11"/><g fill="#1f1718"><path d="M717.01 243.97c6.86-4.44 14.45-8.9 22.91-8.59 7.41.28 12.85 6.3 16.53 12.16 7.77 13.07 11.55 28.05 14.19 42.9 30.88-12.5 65.77-14.41 97.91-5.8 5.58 1.7 11.47 3.08 16.25 6.61 2.13 1.45 4.86 1.2 7.27 1.92 7.39 1.85 14.29 5.31 20.82 9.2 3.03 1.87 5.93 4.35 7.35 7.7.93 2.29 0 4.73-.44 7.02 13.05 7.03 24.69 16.63 34.31 27.89 3.67 4.41 5.69 12.61-.23 16.05 9.53 15.69 15.29 33.67 16.51 52 .49 4.2-1.03 9.01 2.11 12.49 14.34 24.97 13.56 56.23 3.63 82.64a103.5 103.5 0 0 1-17.77 30.24c-2.45 2.84-5.41 5.86-9.34 6.22-2.74.44-5.33-.58-7.42-2.28-8.51 9.01-18.15 17.05-28.81 23.4-6.87 3.63-13.9 7.7-21.75 8.52-4.15.5-7.88-2.29-9.03-6.2-10.93 3.99-22.43 6.16-33.92 7.79-18.61 2.76-37.71 2.1-56.1-1.84-12.55-3.1-25.09-8.25-34.32-17.6-2.29-2.29-3.96-5.14-4.76-8.28-20.18 7.91-42.01 12.98-63.78 10.45-8.4-1.04-16.92-3.04-24.17-7.6-3.97-2.5-6.7-6.43-8.93-10.46-4.28 8-12.47 12.87-20.96 15.31-13.41 3.85-27.83 3.43-41.32.14 2.48-.1 4.94-.38 7.41-.6.17-.69.52-2.08.7-2.78 10.24-.3 20.75.7 30.74-2.11 6.8-2.24 14.39-5.23 17.55-12.21 3.85-6.59 1.69-16.71-5.9-19.48-7.98-1.21-16.21.63-24.13-1.42.76-.86 1.53-1.72 2.32-2.57-.48-.68-.94-1.36-1.39-2.03 14.62-.5 29.33.07 43.85-2.12 31.08-4.01 62.36-13.15 87.88-31.92 7.82-5.73 14.94-12.36 21.44-19.53 3.82-4.23 8.07-8.15 13.19-10.74 3.49-2.22 8.39-3.47 9.71-7.89-7.85-2.36-16.09-2.53-24.13-3.77-2.68.15-2.58-4.13.01-3.99 7.82.04 15.49 1.98 23.2 3.11-1.1-3.48-3.77-6.93-3.01-10.68 3.62-4.21 9.84-4.92 13.43-9.27a383 383 0 0 0-35.96 7.4c-.19-1.57-.85-3.88 1.31-4.4 11.84-3.8 24.27-5.33 36.38-8.01-1.95-5.2-7.68-6.64-11.39-10.12-1.58-2.54 1.88-4.1 3.45-5.45 3.85-2.5 8.59-6.97 6.2-11.99-2.89-4.13-7.71-6.26-11.36-9.6-4.83-3.78-7.81-9.27-10.24-14.77-3.68-8.21-8.38-15.97-14.32-22.74-4.23-4.37-2.72-10.79-3.16-16.26-.92-14.51-2.67-29.03-6.33-43.12-2.2-10.54-6.09-20.87-12.43-29.63-2.04-2.9-4.95-5.69-8.74-5.6-6.7-.64-12.5 3.16-17.93 6.5-9.05 5.26-16.41 12.82-23.77 20.14-6.18 5.96-11.23 12.93-16.25 19.84-.88 1.56-2.75.93-4.17 1.08q-.105-2.58-.18-5.16c-9.54-1-19.14-.63-28.69-.21-3.74.31-6.35-2.84-9.45-4.36-5.8-3.08-12.59-5.45-19.2-3.97-1.77.26-1.38 2.22-1.3 3.52.67 2.96 3.13 5.1 4.03 7.98.5 1.65-1.23 2.82-2.68 2.41-6.37-1.05-13.39-1.47-19.19 1.83-2.27 1.16-2.91 4.62-.9 6.31 2.7 2.78 6.91 1.86 10.32 2.86 2.61 1.16.39 4.58-1.78 4.67-5.38 1.4-10.57-1.28-14.38-4.91-4.9 1.92-8.94 5.37-13.61 7.66-5.52-1.34-10.66-3.9-16.04-5.67-8.52-2.97-17.51-4.12-26.4-5.38-9.1-1.01-18.37-2.19-27.48-.72-3.56.65-7.84 1.84-9.19 5.63-1.61 4.56-1.29 9.51-.93 14.25 1.1 10.19 2.69 20.41 6.2 30.09 3.33 9.23 6.72 18.54 11.77 27 2.44 4.84 5.02 9.62 7.32 14.53.58 3.81-.93 7.63-1.53 11.39-.32-1.33-.63-2.66-.94-3.98-1.32 1.98-2.75 3.9-4.46 5.56.39-3.91 1.2-7.76 1.42-11.68-9.05-14.96-16.48-31-21.31-47.83-3.31-12.36-6.1-25.3-4.28-38.14.48-4.22 2.95-8.23 6.84-10.11 8-4.09 17.29-3.61 26-3.17 17.8 1.78 36.03 4.15 52.24 12.18 3.97-3.17 8.43-5.62 13.08-7.64.25-2.32.8-4.76 2.58-6.41 4.64-4.6 11.58-5.27 17.78-5.42-.58-2.36-1.34-4.9-.38-7.27 1.24-4.2 5.83-6.22 9.88-6.52 8.21-.34 16.07 3.14 22.7 7.72 1 .53 1.9 1.53 3.14 1.48 10.69-.32 21.53-.92 32.11 1.12 10.13-13.39 22.27-25.22 35.99-34.91m77.29 45.43c-7.8 1.63-15.52 3.95-22.61 7.63.8 8.64 1.85 17.27 1.86 25.97.21 3.19-.38 6.87 1.83 9.53 4.99 6.52 9.96 13.13 13.56 20.55 2.12 3.92 3.33 8.32 5.94 11.95 3.96 4.48 9.54 7.09 13.72 11.35 2.98 3.01 5.49 7.2 4.58 11.6-.92 4.8-4.51 8.36-7.96 11.53 4.85 2.68 9.81 7.3 8.58 13.44-1.19 7.62-8.84 10.86-14.57 14.61 1.43 3.25 2.76 6.55 4.18 9.81 1.76.76 3.95 1.06 5.16 2.73-.61 2.43-3.46 1.84-5.26 1.49-.68 2.05-.93 4.52-2.82 5.89-5.49 4.42-12.66 6.37-17.65 11.47-6.96 7.04-13.49 14.56-21.29 20.69-6.69 5.04-13.42 10.09-20.73 14.24-14.33 8.5-30.48 13.16-46.36 17.83-7.98 2.31-16.26 3.31-24.41 4.77-3.67.59-6.23 3.63-7.81 6.79-4.63 8.4-.49 20.39 8.44 24 11.6 5.35 24.68 6.23 37.28 5.59 9.43-.26 18.77-2.2 27.67-5.28 5-2.02 10.11-3.71 15.27-5.25-1.22-4.46-3.18-8.72-3.75-13.34-1.55-9.21.61-19.62 7.84-26.01 9.51-8.68 22.35-14.52 35.43-13.45 1.24-1.78 2.35-3.99 4.61-4.65 3.93-.89 8.07-.3 11.87.96 8.17 2.71 15.76 6.96 24.11 9.16.59-2.73.86-5.96 3.44-7.64 3.27-2.69 7.89-1.99 11.47-.31 8.28 3.71 16.98 6.58 25.94 8.07 8.84 1.41 17.75-.55 26.2-3.06 6.43-1.88 12.19-5.52 17.34-9.73 7.47-6.34 13.99-14.05 17.89-23.1.57-1.96 3.19-2.58 4.6-1.11 1.65 1.82.28 4.31-.67 6.11-4.09 7-8.32 14.08-14.37 19.6-8.43 7.66-18.84 13.04-29.8 16.03-13.88 3.71-28.62 1.1-41.69-4.26-4.63-1.83-9.27-4.69-14.45-3.77-.51 2.91 1.28 7.42-2.08 8.99-6.82.24-13.27-2.76-19.54-5.12-5.96-2.36-11.9-5.99-18.56-5.27-.62 1.92-.5 4.68-2.73 5.53-4.35-.02-8.74-.71-13.06.13-8.15 1.42-15.5 5.83-21.66 11.2-9.96 9-8.24 25.87.46 35.11 2.22 1.82-1.52 4.45.41 6.53 6.35 9.94 18.2 14.39 28.82 18.24 28.23 6.79 58.25 5.15 85.98-3.22 4.31-.88 8.37-3.33 12.88-2.93 0 2.35.03 4.71.11 7.07 7.35.37 13.9-3.78 20.32-6.81 12.27-7.3 23.53-16.39 33.04-27.06 3.04-2.14 4.54 2.21 5.71 4.23 4.82-.98 7.79-5.15 10.66-8.76 4.94-6.19 8.34-13.41 11.46-20.64 6.66-16.75 9.69-35.18 7.33-53.12-1.96-9.89-4.48-19.93-9.84-28.58-1.11-1.94-2.23-3.99-2.24-6.28-.32-6.36-.2-12.78-1.33-19.07-2.78-13.76-7.77-27.08-15-39.12-1.17-1.72-1.73-3.69-1.3-5.75 1.41-.62 2.95-1.08 4.16-2.08.43-2-.23-3.97-1.47-5.52-8.07-10.99-19.26-19.12-30.67-26.33-2.59-1.69-5.78-2.74-7.66-5.3-.68-2.59 2.69-3.65 3.13-5.94-.42-2.37-2.82-3.45-4.64-4.59-6.53-3.56-13.2-7.23-20.6-8.57-2.49-.62-5.26-.76-7.22-2.58-3.54-3.16-8.47-3.47-12.79-4.9-24.14-7.24-50.2-7.7-74.69-1.92M653.15 517.8c1.04 1.27 2.02 2.61 2.94 3.99.88-1.58 1.88-3.08 3.01-4.48-1.98.28-3.97.46-5.95.49"/><path d="M732.3 258.14c1.71-1.76 4.2-1.5 6.34-.81-.04.62-.14 1.86-.18 2.48-3.62 1.22-5.99 4.41-8.41 7.16-7.2 9.11-13.53 19.24-16.27 30.63 5.53-.57 11.56-2.74 16.88-.17 3.08 1.61 3.08 5.35 3.18 8.36 2.54 1.17 5.37 2 7.42 4 1.48 1.8 2.3 4.02 3.35 6.09.02.49.05 1.47.07 1.96-2.05-1-4.21-1.98-5.57-3.89-2.5-3.58-7.6-3.62-10.33-6.92-.9-1.8 0-3.91.1-5.8-4.9-.46-9.74.43-14.55 1.23-2.05.46-4.65-.37-5.03-2.68-.56-3.86.91-7.63 2.27-11.17 4.72-11.42 11.62-22.07 20.73-30.47m-217.77 55.82c.24-1.45.43-3.41 2.43-3.18 6.76-.02 12.45 4.13 18.33 6.91 7.22 3.36 13.95 7.81 19.66 13.36 1.77 1.68 3.51 5.05 1 6.87-3.84 2.91-8.57 4.52-12.01 8.01.75 1.35 1.54 2.7 2.11 4.15-.1 2.34-2.92 3.29-3.5 5.5-1.89 3.97-2.68 10.49-8.35 10.43 1.58-5.23 3.16-10.53 5.88-15.31-.83-2.31-2.22-5-.6-7.32 3.03-4.4 8.46-6.06 12.99-8.46-6.05-6.09-13.71-10.13-21.06-14.39-5.26-3.05-11.01-5.07-16.88-6.57m343.52 70.01c2.5-.76 5.18-1.76 7.81-1 1.73 1.19 1.44 3.61.03 4.92-3.79 1.33-7.86 1.78-11.52 3.52-13.33 6.04-25.05 16.16-31.86 29.23-1.32 2.47-1.96 5.22-2.48 7.95 2.09.4 5.93 1.01 4.65 4.1-6.76 11.53-7.8 25.91-4.01 38.6.85 3.2 3.37 6.02 3.13 9.46-1.17 2.84-4.75 1.39-5.8-.77-5.21-9.3-6.58-20.38-5.36-30.87.56-4.59 2.52-8.82 3.87-13.2.81-1.89-1.02-3.33-1.71-4.89-1.92-3.18-.33-6.99.95-10.08 7.97-17.6 23.97-31.16 42.3-36.97m-363.57 29.09c1.77-6.78 11.36-9.76 16.54-4.92 4.16 4.38 3.67 11.03 5.47 16.28 9.97-.77 20.73-.75 29.57 4.6 2.62 1.38 3.07 4.35 3.05 7.04 8.53 3.08 17.03 6.8 23.85 12.93 13.48 11.9 20.88 29.49 23.16 47.07 2.39 15.18-.62 30.92-7.59 44.53-2.1 4.02-4.87 7.62-7.24 11.47-9.57 12.66-24.28 20.37-39.14 25.13-21.08 6.31-43.9 6.23-65.16.81-13.64-3.25-26.67-9.47-37.25-18.75-12.77-11.17-20.68-27.37-22.68-44.14-1.66-18.57 1.83-38.05 12.22-53.77 7.94-11.81 19.76-21.01 33.4-25.25-1.12-6.24 5.31-9.35 10.29-10.62 7.75-1.83 16.12-2.14 23.85-.07-1.18-4-3.1-8.08-2.34-12.34m5.7.98c-.15 4.73 2.42 9.19 1.88 13.97-.15 1.99-2.26 2.72-3.97 2.37-9.01-1.12-18.8-2.69-27.29 1.44-1.85.63-3.73 3.29-1.34 4.57 5.34 3.03 11.76 2.42 17.63 3.53-2.78 4.7-7.74 8.36-8.28 14.14-.34 2.17 2.4 3.25 4.14 2.63 7.09-1.46 13.81-4.69 19.58-9.03 1.31-.96 3.25-2.34 4.77-.93 4.84 3.62 9.81 7.35 15.73 9.02 2.24.45 6 1.91 7.22-.9.64-5.45-3.24-10.01-6.28-14.12 2.47-2.27 6.04-1.71 9.11-2.2 3.94-.55 8.49-1.02 11.14-4.36-7.34-5.56-17.3-5.74-26.05-4.51-2.14.15-5.09 2.07-6.62-.23-1.2-5.67-.78-11.96-3.94-17.06-2.02-2.71-6.12-.81-7.43 1.67m-58.85 41.26c-12.19 12.24-18.48 29.44-19.15 46.54 6.33 4.34 13.73 6.75 20.92 9.29 18.91 6.65 39.01 9.27 58.99 9.74 7.65.83 15.31-.16 22.97-.35 15.14-1.31 30.27-3.92 44.59-9.14 6.29-1.89 12.27-4.67 18.25-7.35l.02-.34c1.14-.57 2.29-1.14 3.44-1.71-.66-12.24-3.7-24.6-10.36-35-6.79-10.9-17.14-19.67-29.27-24.03l-.19-.29c-2.06-.71-4.21-2.53-6.46-1.52-3.94 1.53-8.06 2.57-12.28 2.84 2.12 3.9 3.66 8.61 2.18 13-1.25 3.59-5.46 4.92-8.94 4.53-7.76-.78-14.58-5.07-20.33-10.09-6.45 4.78-13.51 9.39-21.67 10.34-3.45.45-7.78.15-9.63-3.3-2.4-4.88.09-10.32 2.9-14.43-4.03-.47-7.95-1.6-11.64-3.27-8.79 3.5-17.6 7.73-24.34 14.54m-18.98 52.87c.04 13.51 4.46 27.09 12.72 37.83.75.86 1.39 1.93 2.47 2.43 3.29 5.29 8.62 8.88 13.6 12.44 12.78 8.29 27.61 13.44 42.79 14.84 20.02 2.34 40.86.08 59.22-8.56 7.12-3.93 13.98-8.47 19.85-14.12 5.21-4.89 8.89-11.1 12.23-17.34 4.16-8.66 6.19-18.23 6.42-27.81-7.58 4.25-15.95 6.76-24.12 9.6-29.82 9.38-61.69 10.29-92.51 6.44-18.13-2.87-36.18-7.57-52.67-15.75m307.84-99.92c2.55-1.67 5.66.96 5.14 3.77-.57 13.23-13.62 23.26-26.36 23.09-7.27-.03-14.67-3.13-19.18-8.95-1.3-1.65-1.94-4.91.41-5.95 2.11-1.24 4.05.81 5.77 1.81 9.65 7.32 25.18 3.29 30.53-7.44 1.24-2.08 1.75-4.76 3.69-6.33m-125.3 34.87c4.22-2.47 6.34-7.14 10.21-10.03.88 1.5 2.5 2.95 2.04 4.9-.78 4.82-4.27 8.59-7.71 11.79-2.28 1.43-4.72 2.58-7.2 3.61-1.13-2.64-2.42-5.22-3.91-7.68 2.27-.62 4.59-1.27 6.57-2.59m62.1 13.23c3.69-.08 5.91-3.09 8.14-5.58 2.36-.98 2.97 2.22 2.4 3.84-1.44 4.83-6.83 7.1-11.51 7.14-3.25.22-6.23-1.24-9.08-2.57-2.75 2.78-5.86 5.78-10 6.02-3.6.38-8.31-.66-9.61-4.51-.51-1.36.79-2.32 1.42-3.32 2.85 1.63 6.27 3.54 9.59 1.97 3.72-1.34 5.11-5.29 7.43-8.12 2.91 3.05 6.68 6.14 11.22 5.13"/></g><g fill="#46444d"><path d="M722.1 248.18c5.43-3.34 11.23-7.14 17.93-6.5 3.79-.09 6.7 2.7 8.74 5.6 6.34 8.76 10.23 19.09 12.43 29.63 3.66 14.09 5.41 28.61 6.33 43.12.44 5.47-1.07 11.89 3.16 16.26 5.94 6.77 10.64 14.53 14.32 22.74 2.43 5.5 5.41 10.99 10.24 14.77 3.65 3.34 8.47 5.47 11.36 9.6 2.39 5.02-2.35 9.49-6.2 11.99-1.57 1.35-5.03 2.91-3.45 5.45 3.71 3.48 9.44 4.92 11.39 10.12-12.11 2.68-24.54 4.21-36.38 8.01-2.16.52-1.5 2.83-1.31 4.4a383 383 0 0 1 35.96-7.4c-3.59 4.35-9.81 5.06-13.43 9.27-.76 3.75 1.91 7.2 3.01 10.68-7.71-1.13-15.38-3.07-23.2-3.11-2.59-.14-2.69 4.14-.01 3.99 8.04 1.24 16.28 1.41 24.13 3.77-1.32 4.42-6.22 5.67-9.71 7.89-5.12 2.59-9.37 6.51-13.19 10.74-6.5 7.17-13.62 13.8-21.44 19.53-25.52 18.77-56.8 27.91-87.88 31.92-14.52 2.19-29.23 1.62-43.85 2.12.45.67.91 1.35 1.39 2.03-.79.85-1.56 1.71-2.32 2.57 7.92 2.05 16.15.21 24.13 1.42 7.59 2.77 9.75 12.89 5.9 19.48-3.16 6.98-10.75 9.97-17.55 12.21-9.99 2.81-20.5 1.81-30.74 2.11-.18.7-.53 2.09-.7 2.78-2.47.22-4.93.5-7.41.6-1.46-.2-2.86-.57-4.27-.91 2.53-1.77 5.21-4.01 8.48-3.85 2.74.02 5.48-.06 8.19-.53 2.08-4.22 4.43-8.42 5.06-13.16.37-3.25 1.54-6.28 2.67-9.31-.08-3.33.65-6.55 1.98-9.58-3.8-.87-7.59-1.84-11.32-2.94-.03-1.42-.05-2.83-.07-4.24 6.69-.06 13.39.04 20.08.15-.67-1.32-1.55-2.63-1.4-4.17 0-6.22.07-12.92-3.32-18.4.46-.63.92-1.25 1.39-1.88-2.1-3.63-2.88-7.88-2.21-12.02-1.65-2.06-2.64-4.5-3.04-7.09-.79-5.05-4.15-9.25-4.69-14.36-.69.2-1.38.41-2.05.63.06-1.52.12-3.03.2-4.53 3.44-3.2 6.93-6.97 7.71-11.79.46-1.95-1.16-3.4-2.04-4.9-3.87 2.89-5.99 7.56-10.21 10.03-1.98 1.32-4.3 1.97-6.57 2.59 1.49 2.46 2.78 5.04 3.91 7.68-2.82 1.02-5.91 1.63-8.89 1.02-2.08-2.3-3.31-5.24-5.12-7.75 3.34-.18 6.73-.61 9.73-2.21-3.51-3.3-7.13-6.49-10.32-10.09-5.39-3.22-8.96-8.79-14.75-11.4-5.15-2.36-9.46-6.24-14.83-8.14-5.69-2.98-12.01-4.01-18.25-5.15-.11-.48-.32-1.44-.42-1.91-4.77-.24-9.51-1.23-13.78-3.41-.78 2.02-1.54 4.05-2.27 6.09-2.03.31-4.06.61-6.09.86.61-3.46 1.11-6.95 1.68-10.42l.3-.31c1.71-1.66 3.14-3.58 4.46-5.56.31 1.32.62 2.65.94 3.98.6-3.76 2.11-7.58 1.53-11.39-2.3-4.91-4.88-9.69-7.32-14.53-5.05-8.46-8.44-17.77-11.77-27-3.51-9.68-5.1-19.9-6.2-30.09-.36-4.74-.68-9.69.93-14.25 1.35-3.79 5.63-4.98 9.19-5.63 9.11-1.47 18.38-.29 27.48.72 8.89 1.26 17.88 2.41 26.4 5.38 5.38 1.77 10.52 4.33 16.04 5.67 4.67-2.29 8.71-5.74 13.61-7.66 3.81 3.63 9 6.31 14.38 4.91 2.17-.09 4.39-3.51 1.78-4.67-3.41-1-7.62-.08-10.32-2.86-2.01-1.69-1.37-5.15.9-6.31 5.8-3.3 12.82-2.88 19.19-1.83 1.45.41 3.18-.76 2.68-2.41-.9-2.88-3.36-5.02-4.03-7.98-.08-1.3-.47-3.26 1.3-3.52 6.61-1.48 13.4.89 19.2 3.97 3.1 1.52 5.71 4.67 9.45 4.36 9.55-.42 19.15-.79 28.69.21q.075 2.58.18 5.16c1.42-.15 3.29.48 4.17-1.08 5.02-6.91 10.07-13.88 16.25-19.84 7.36-7.32 14.72-14.88 23.77-20.14m10.2 9.96c-9.11 8.4-16.01 19.05-20.73 30.47-1.36 3.54-2.83 7.31-2.27 11.17.38 2.31 2.98 3.14 5.03 2.68 4.81-.8 9.65-1.69 14.55-1.23-.1 1.89-1 4-.1 5.8 2.73 3.3 7.83 3.34 10.33 6.92 1.36 1.91 3.52 2.89 5.57 3.89-.02-.49-.05-1.47-.07-1.96 1.97.64 4.25 1.91 6.33 1.04 1.74-.53 1.73-2.52 1.84-4 .34-11.77-1.04-23.52-3.87-34.94-1.7-6.77-3.87-14.57-10.45-18.17.04-.62.14-1.86.18-2.48-2.14-.69-4.63-.95-6.34.81m-217.77 55.82c-1.59 6.17-.13 12.55 1.27 18.6 2.71 9.58 5.89 19.13 10.77 27.84 1.32 2.26 2.69 4.6 4.76 6.28.9.01 2.65.7 2.87-.67 5.67.06 6.46-6.46 8.35-10.43.58-2.21 3.4-3.16 3.5-5.5-.57-1.45-1.36-2.8-2.11-4.15 3.44-3.49 8.17-5.1 12.01-8.01 2.51-1.82.77-5.19-1-6.87-5.71-5.55-12.44-10-19.66-13.36-5.88-2.78-11.57-6.93-18.33-6.91-2-.23-2.19 1.73-2.43 3.18m215.66 94.29c-1.94 1.57-2.45 4.25-3.69 6.33-5.35 10.73-20.88 14.76-30.53 7.44-1.72-1-3.66-3.05-5.77-1.81-2.35 1.04-1.71 4.3-.41 5.95 4.51 5.82 11.91 8.92 19.18 8.95 12.74.17 25.79-9.86 26.36-23.09.52-2.81-2.59-5.44-5.14-3.77m12.16 21.24c-4.82 1.38-9.57 4.27-11.97 8.81-1.7 3.02-.26 7.09 2.87 8.5 5.58 2.68 12.18 1.62 17.81-.39 3.78-1.58 8.14-3.41 9.84-7.46 1.55-3.4-.55-7.55-3.86-8.95-4.6-2.04-9.91-1.71-14.69-.51m-89.92 5.14c-2.96.77-7.55.81-8.58 4.34 1.34 6.39 11.54 8.6 15.44 3.24 1.44-1.97 2.97-5.32.61-7.19-2.36-.98-5.01-.61-7.47-.39m14.56 21.72c-4.54 1.01-8.31-2.08-11.22-5.13-2.32 2.83-3.71 6.78-7.43 8.12-3.32 1.57-6.74-.34-9.59-1.97-.63 1-1.93 1.96-1.42 3.32 1.3 3.85 6.01 4.89 9.61 4.51 4.14-.24 7.25-3.24 10-6.02 2.85 1.33 5.83 2.79 9.08 2.57 4.68-.04 10.07-2.31 11.51-7.14.57-1.62-.04-4.82-2.4-3.84-2.23 2.49-4.45 5.5-8.14 5.58"/><path d="M794.3 289.4c24.49-5.78 50.55-5.32 74.69 1.92 4.32 1.43 9.25 1.74 12.79 4.9 1.96 1.82 4.73 1.96 7.22 2.58 7.4 1.34 14.07 5.01 20.6 8.57 1.82 1.14 4.22 2.22 4.64 4.59-.44 2.29-3.81 3.35-3.13 5.94 1.88 2.56 5.07 3.61 7.66 5.3 11.41 7.21 22.6 15.34 30.67 26.33 1.24 1.55 1.9 3.52 1.47 5.52-1.21 1-2.75 1.46-4.16 2.08-.43 2.06.13 4.03 1.3 5.75 7.23 12.04 12.22 25.36 15 39.12 1.13 6.29 1.01 12.71 1.33 19.07.01 2.29 1.13 4.34 2.24 6.28 5.36 8.65 7.88 18.69 9.84 28.58 2.36 17.94-.67 36.37-7.33 53.12-3.12 7.23-6.52 14.45-11.46 20.64-2.87 3.61-5.84 7.78-10.66 8.76-1.17-2.02-2.67-6.37-5.71-4.23-9.51 10.67-20.77 19.76-33.04 27.06-6.42 3.03-12.97 7.18-20.32 6.81-.08-2.36-.11-4.72-.11-7.07-4.51-.4-8.57 2.05-12.88 2.93-27.73 8.37-57.75 10.01-85.98 3.22-10.62-3.85-22.47-8.3-28.82-18.24-1.93-2.08 1.81-4.71-.41-6.53-8.7-9.24-10.42-26.11-.46-35.11 6.16-5.37 13.51-9.78 21.66-11.2 4.32-.84 8.71-.15 13.06-.13 2.23-.85 2.11-3.61 2.73-5.53 6.66-.72 12.6 2.91 18.56 5.27 6.27 2.36 12.72 5.36 19.54 5.12 3.36-1.57 1.57-6.08 2.08-8.99 5.18-.92 9.82 1.94 14.45 3.77 13.07 5.36 27.81 7.97 41.69 4.26 10.96-2.99 21.37-8.37 29.8-16.03 6.05-5.52 10.28-12.6 14.37-19.6.95-1.8 2.32-4.29.67-6.11-1.41-1.47-4.03-.85-4.6 1.11-3.9 9.05-10.42 16.76-17.89 23.1-5.15 4.21-10.91 7.85-17.34 9.73-8.45 2.51-17.36 4.47-26.2 3.06-8.96-1.49-17.66-4.36-25.94-8.07-3.58-1.68-8.2-2.38-11.47.31-2.58 1.68-2.85 4.91-3.44 7.64-8.35-2.2-15.94-6.45-24.11-9.16-3.8-1.26-7.94-1.85-11.87-.96-2.26.66-3.37 2.87-4.61 4.65-13.08-1.07-25.92 4.77-35.43 13.45-7.23 6.39-9.39 16.8-7.84 26.01.57 4.62 2.53 8.88 3.75 13.34-5.16 1.54-10.27 3.23-15.27 5.25-8.9 3.08-18.24 5.02-27.67 5.28-12.6.64-25.68-.24-37.28-5.59-8.93-3.61-13.07-15.6-8.44-24 1.58-3.16 4.14-6.2 7.81-6.79 8.15-1.46 16.43-2.46 24.41-4.77 15.88-4.67 32.03-9.33 46.36-17.83 7.31-4.15 14.04-9.2 20.73-14.24 7.8-6.13 14.33-13.65 21.29-20.69 4.99-5.1 12.16-7.05 17.65-11.47 1.89-1.37 2.14-3.84 2.82-5.89 1.8.35 4.65.94 5.26-1.49-1.21-1.67-3.4-1.97-5.16-2.73-1.42-3.26-2.75-6.56-4.18-9.81 5.73-3.75 13.38-6.99 14.57-14.61 1.23-6.14-3.73-10.76-8.58-13.44 3.45-3.17 7.04-6.73 7.96-11.53.91-4.4-1.6-8.59-4.58-11.6-4.18-4.26-9.76-6.87-13.72-11.35-2.61-3.63-3.82-8.03-5.94-11.95-3.6-7.42-8.57-14.03-13.56-20.55-2.21-2.66-1.62-6.34-1.83-9.53-.01-8.7-1.06-17.33-1.86-25.97 7.09-3.68 14.81-6 22.61-7.63m63.75 94.57c-18.33 5.81-34.33 19.37-42.3 36.97-1.28 3.09-2.87 6.9-.95 10.08.69 1.56 2.52 3 1.71 4.89-1.35 4.38-3.31 8.61-3.87 13.2-1.22 10.49.15 21.57 5.36 30.87 1.05 2.16 4.63 3.61 5.8.77.24-3.44-2.28-6.26-3.13-9.46-3.79-12.69-2.75-27.07 4.01-38.6 1.28-3.09-2.56-3.7-4.65-4.1.52-2.73 1.16-5.48 2.48-7.95 6.81-13.07 18.53-23.19 31.86-29.23 3.66-1.74 7.73-2.19 11.52-3.52 1.41-1.31 1.7-3.73-.03-4.92-2.63-.76-5.31.24-7.81 1"/></g><path fill="#f0a8a5" d="M730.05 266.97c2.42-2.75 4.79-5.94 8.41-7.16 6.58 3.6 8.75 11.4 10.45 18.17 2.83 11.42 4.21 23.17 3.87 34.94-.11 1.48-.1 3.47-1.84 4-2.08.87-4.36-.4-6.33-1.04-1.05-2.07-1.87-4.29-3.35-6.09-2.05-2-4.88-2.83-7.42-4-.1-3.01-.1-6.75-3.18-8.36-5.32-2.57-11.35-.4-16.88.17 2.74-11.39 9.07-21.52 16.27-30.63M515.8 332.56c-1.4-6.05-2.86-12.43-1.27-18.6 5.87 1.5 11.62 3.52 16.88 6.57 7.35 4.26 15.01 8.3 21.06 14.39-4.53 2.4-9.96 4.06-12.99 8.46-1.62 2.32-.23 5.01.6 7.32-2.72 4.78-4.3 10.08-5.88 15.31-.22 1.37-1.97.68-2.87.67-2.07-1.68-3.44-4.02-4.76-6.28-4.88-8.71-8.06-18.26-10.77-27.84m226.55 96.93c4.78-1.2 10.09-1.53 14.69.51 3.31 1.4 5.41 5.55 3.86 8.95-1.7 4.05-6.06 5.88-9.84 7.46-5.63 2.01-12.23 3.07-17.81.39-3.13-1.41-4.57-5.48-2.87-8.5 2.4-4.54 7.15-7.43 11.97-8.81m-89.92 5.14c2.46-.22 5.11-.59 7.47.39 2.36 1.87.83 5.22-.61 7.19-3.9 5.36-14.1 3.15-15.44-3.24 1.03-3.53 5.62-3.57 8.58-4.34m-198.25 21.64c3.01-.87 6.97.4 7.87 3.68 1.64 5.68-2.56 11.19-7.35 13.76-3 1.69-7.77 1.63-9.23-2.04-2.02-6.29 2.81-13.32 8.71-15.4m-14.77 21.16c3.06-1.31 6.06 2.75 4.4 5.41-.75 2.28-3.73 3.89-5.78 2.19-2.68-2.01-1.2-6.23 1.38-7.6"/><g fill="#ef685f"><path d="M465.46 365.02c.76-3.02 4.22-2.98 6.67-2.32 2.35 6.29 2.99 13.02 4.61 19.5.66 3.25 1.88 6.47 1.69 9.84-1.47 2.55-5.43 3.38-7.18.69-2.04-3.95-2.2-8.54-3.35-12.78-.89-4.96-2.97-9.82-2.44-14.93m-35.14 17.06c.82-3.2 5.93-4 7.58-1.05 4.72 6.23 10.02 12.04 14.51 18.45 1.48 1.79.68 4.02-.15 5.89-1.92.27-4.26.9-5.67-.87-5-5.08-9.19-10.9-13.68-16.42-1.28-1.76-3.32-3.59-2.59-6m-23.76 30.26c1.31-1.76 3.77-1.01 5.52-.44 6.6 2.37 13.3 4.47 19.79 7.15 1.63.68 3.69 1.84 3.51 3.92.29 2.17-1.81 3.42-3.14 4.7-8.18-2.37-16.3-4.99-24.17-8.23-2.94-.96-3.53-4.97-1.51-7.1m34.77 42.96c6.74-6.81 15.55-11.04 24.34-14.54 3.69 1.67 7.61 2.8 11.64 3.27-2.81 4.11-5.3 9.55-2.9 14.43 1.85 3.45 6.18 3.75 9.63 3.3 8.16-.95 15.22-5.56 21.67-10.34 5.75 5.02 12.57 9.31 20.33 10.09 3.48.39 7.69-.94 8.94-4.53 1.48-4.39-.06-9.1-2.18-13 4.22-.27 8.34-1.31 12.28-2.84 2.25-1.01 4.4.81 6.46 1.52l.19.29c2.56 4.72 7.59 7.42 10.13 12.16 6.43 11.1 11.38 23.83 10.04 36.88-.6 6.48-2.09 12.87-2.25 19.39-14.32 5.22-29.45 7.83-44.59 9.14-7.66.19-15.32 1.18-22.97.35-19.98-.47-40.08-3.09-58.99-9.74-7.19-2.54-14.59-4.95-20.92-9.29.67-17.1 6.96-34.3 19.15-46.54m12.85.97c-5.9 2.08-10.73 9.11-8.71 15.4 1.46 3.67 6.23 3.73 9.23 2.04 4.79-2.57 8.99-8.08 7.35-13.76-.9-3.28-4.86-4.55-7.87-3.68m-14.77 21.16c-2.58 1.37-4.06 5.59-1.38 7.6 2.05 1.7 5.03.09 5.78-2.19 1.66-2.66-1.34-6.72-4.4-5.41m65.87 12.01c-1.96.48-1.95 2.88-1.98 4.5.06 5.64-.11 11.3.17 16.94-.17 1.88 1.5 4.03 3.54 3.5 2.45-.33 2.58-3.35 2.66-5.29-.04-5.71.31-11.44-.05-17.14.11-2.25-2.53-3.13-4.34-2.51m-74.26 11.59c.89.27 1.79.55 2.69.83 1.14-2.52 2.35-5.07 2.79-7.83.16-1.73-.7-2.66-2.57-2.78-2.41 2.65-2.51 6.42-2.91 9.78m31.61 10.27c.92.13 1.85.26 2.79.4 1.32-3.07 2.24-6.4 1.92-9.77-.64-.48-1.92-1.43-2.56-1.91-2.1 3.35-2.53 7.41-2.15 11.28m83.09-10.7c-.12 3.21-.42 6.66 1.14 9.61 1.05 1.1 3.29.67 3.37-1.08.4-2.95-.39-5.86-1-8.71-.88.05-2.63.14-3.51.18"/><path d="M422.35 508.17c16.49 8.18 34.54 12.88 52.67 15.75 30.82 3.85 62.69 2.94 92.51-6.44-.53 1.32-1.07 2.64-1.63 3.96-4.29 8.39-9.24 16.82-16.84 22.65-6.26 4.89-12.91 9.38-20.08 12.83-18.65 8.33-40.02 10.62-59.94 5.86-8.42-1.29-16.17-5.03-23.36-9.44-2.63-1.78-5.05-3.96-8.14-4.91-1.08-.5-1.72-1.57-2.47-2.43-8.26-10.74-12.68-24.32-12.72-37.83"/></g><path fill="#846062" d="M523.33 410.44c.73-2.04 1.49-4.07 2.27-6.09 4.27 2.18 9.01 3.17 13.78 3.41.1.47.31 1.43.42 1.91 6.24 1.14 12.56 2.17 18.25 5.15 5.37 1.9 9.68 5.78 14.83 8.14 5.79 2.61 9.36 8.18 14.75 11.4 3.19 3.6 6.81 6.79 10.32 10.09-3 1.6-6.39 2.03-9.73 2.21 1.81 2.51 3.04 5.45 5.12 7.75 2.98.61 6.07 0 8.89-1.02 2.48-1.03 4.92-2.18 7.2-3.61-.08 1.5-.14 3.01-.2 4.53.67-.22 1.36-.43 2.05-.63.54 5.11 3.9 9.31 4.69 14.36.4 2.59 1.39 5.03 3.04 7.09-.67 4.14.11 8.39 2.21 12.02-.47.63-.93 1.25-1.39 1.88 3.39 5.48 3.32 12.18 3.32 18.4-.15 1.54.73 2.85 1.4 4.17-6.69-.11-13.39-.21-20.08-.15.02 1.41.04 2.82.07 4.24 3.73 1.1 7.52 2.07 11.32 2.94-1.33 3.03-2.06 6.25-1.98 9.58-1.13 3.03-2.3 6.06-2.67 9.31-.63 4.74-2.98 8.94-5.06 13.16-2.71.47-5.45.55-8.19.53-3.27-.16-5.95 2.08-8.48 3.85-2.8-.8-5.51-1.89-8.19-3 2.37-3.85 5.14-7.45 7.24-11.47 6.97-13.61 9.98-29.35 7.59-44.53-2.28-17.58-9.68-35.17-23.16-47.07-6.82-6.13-15.32-9.85-23.85-12.93.02-2.69-.43-5.66-3.05-7.04-8.84-5.35-19.6-5.37-29.57-4.6.21-4.37.11-8.77.75-13.12 2.03-.25 4.06-.55 6.09-.86"/><path fill="#90c076" d="M500.18 414.04c1.31-2.48 5.41-4.38 7.43-1.67 3.16 5.1 2.74 11.39 3.94 17.06 1.53 2.3 4.48.38 6.62.23 8.75-1.23 18.71-1.05 26.05 4.51-2.65 3.34-7.2 3.81-11.14 4.36-3.07.49-6.64-.07-9.11 2.2 3.04 4.11 6.92 8.67 6.28 14.12-1.22 2.81-4.98 1.35-7.22.9-5.92-1.67-10.89-5.4-15.73-9.02-1.52-1.41-3.46-.03-4.77.93-5.77 4.34-12.49 7.57-19.58 9.03-1.74.62-4.48-.46-4.14-2.63.54-5.78 5.5-9.44 8.28-14.14-5.87-1.11-12.29-.5-17.63-3.53-2.39-1.28-.51-3.94 1.34-4.57 8.49-4.13 18.28-2.56 27.29-1.44 1.71.35 3.82-.38 3.97-2.37.54-4.78-2.03-9.24-1.88-13.97"/><path fill="#e54a54" d="M551.73 442.95c12.13 4.36 22.48 13.13 29.27 24.03 6.66 10.4 9.7 22.76 10.36 35-1.15.57-2.3 1.14-3.44 1.71.03-1.61.16-3.22.35-4.82-1.81-2.84-3.74-5.59-5.62-8.37-3.63.15-7.21.73-10.75 1.49 1.34-13.05-3.61-25.78-10.04-36.88-2.54-4.74-7.57-7.44-10.13-12.16m15.8 74.53c8.17-2.84 16.54-5.35 24.12-9.6-.23 9.58-2.26 19.15-6.42 27.81l-2.51-1.08c-.98-3.24-1.67-6.56-2.69-9.78-.4-1.5-1.99-2.1-3.36-2.24-3.58-.46-7.23-.33-10.77-1.15.56-1.32 1.1-2.64 1.63-3.96"/><path fill="#e44450" d="M571.9 491.99c3.54-.76 7.12-1.34 10.75-1.49 1.88 2.78 3.81 5.53 5.62 8.37-.19 1.6-.32 3.21-.35 4.82l-.02.34c-5.98 2.68-11.96 5.46-18.25 7.35.16-6.52 1.65-12.91 2.25-19.39m4.62 2.9c.53 2.41 1.12 4.81 1.9 7.16.86-.5 2.5-.68 2.28-2.05.23-2.65-.29-5.57-2.61-7.18-.4.52-1.18 1.55-1.57 2.07m-10.62 26.55c3.54.82 7.19.69 10.77 1.15 1.37.14 2.96.74 3.36 2.24 1.02 3.22 1.71 6.54 2.69 9.78l2.51 1.08c-3.34 6.24-7.02 12.45-12.23 17.34-5.87 5.65-12.73 10.19-19.85 14.12-18.36 8.64-39.2 10.9-59.22 8.56-15.18-1.4-30.01-6.55-42.79-14.84-4.98-3.56-10.31-7.15-13.6-12.44 3.09.95 5.51 3.13 8.14 4.91 7.19 4.41 14.94 8.15 23.36 9.44 19.92 4.76 41.29 2.47 59.94-5.86 7.17-3.45 13.82-7.94 20.08-12.83 7.6-5.83 12.55-14.26 16.84-22.65"/></svg>